<?xml version="1.0" standalone="no"?><!DOCTYPE svg PUBLIC "-//W3C//DTD SVG 1.1//EN" "http://www.w3.org/Graphics/SVG/1.1/DTD/svg11.dtd"><svg width="100%" height="100%" viewBox="0 0 60 67" version="1.1" xmlns="http://www.w3.org/2000/svg" xmlns:xlink="http://www.w3.org/1999/xlink" xml:space="preserve" style="fill-rule:evenodd;clip-rule:evenodd;stroke-linejoin:round;stroke-miterlimit:1.41421;"><path d="M29.544,15.75c-0.497,0 -0.9,0.404 -0.9,0.902c0,0.496 0.403,0.9 0.9,0.9c0.497,0 0.901,-0.404 0.901,-0.9c0,-0.498 -0.404,-0.902 -0.901,-0.902" style="fill:#373f49;fill-rule:nonzero;"/><path d="M31.815,15.25c0,-0.497 -0.404,-0.902 -0.901,-0.902c-0.497,0 -0.9,0.405 -0.9,0.902c0,0.496 0.403,0.9 0.9,0.9c0.497,0 0.901,-0.404 0.901,-0.9" style="fill:#373f49;fill-rule:nonzero;"/><path d="M31.815,18.054c0,-0.497 -0.404,-0.901 -0.901,-0.901c-0.497,0 -0.9,0.404 -0.9,0.901c0,0.497 0.403,0.9 0.9,0.9c0.497,0 0.901,-0.403 0.901,-0.9" style="fill:#373f49;fill-rule:nonzero;"/><path d="M32.466,15.706c-0.497,0 -0.9,0.404 -0.9,0.901c0,0.497 0.403,0.9 0.9,0.9c0.497,0 0.9,-0.403 0.9,-0.9c0,-0.497 -0.403,-0.901 -0.9,-0.901" style="fill:#373f49;fill-rule:nonzero;"/><path d="M34.159,14.291c-0.496,0 -0.9,0.405 -0.9,0.902c0,0.496 0.404,0.9 0.9,0.9c0.498,0 0.902,-0.404 0.902,-0.9c0,-0.497 -0.404,-0.902 -0.902,-0.902" style="fill:#373f49;fill-rule:nonzero;"/><path d="M34.145,17.184c-0.495,0 -0.899,0.404 -0.899,0.901c0,0.497 0.404,0.9 0.899,0.9c0.498,0 0.902,-0.403 0.902,-0.9c0,-0.497 -0.404,-0.901 -0.902,-0.901" style="fill:#373f49;fill-rule:nonzero;"/><path d="M32.404,20.386c0.498,0 0.901,-0.404 0.901,-0.9c0,-0.498 -0.403,-0.902 -0.901,-0.902c-0.497,0 -0.899,0.404 -0.899,0.902c0,0.496 0.402,0.9 0.899,0.9" style="fill:#373f49;fill-rule:nonzero;"/><path d="M31.901,21.231c0,-0.497 -0.404,-0.902 -0.901,-0.902c-0.497,0 -0.9,0.405 -0.9,0.902c0,0.496 0.403,0.9 0.9,0.9c0.497,0 0.901,-0.404 0.901,-0.9" style="fill:#373f49;fill-rule:nonzero;"/><path d="M29.597,24.043c0.497,0 0.901,-0.403 0.901,-0.9c0,-0.497 -0.404,-0.901 -0.901,-0.901c-0.496,0 -0.899,0.404 -0.899,0.901c0,0.497 0.403,0.9 0.899,0.9" style="fill:#373f49;fill-rule:nonzero;"/><path d="M36.062,15.709c-0.497,0 -0.9,0.405 -0.9,0.901c0,0.497 0.403,0.901 0.9,0.901c0.497,0 0.901,-0.404 0.901,-0.901c0,-0.496 -0.404,-0.901 -0.901,-0.901" style="fill:#373f49;fill-rule:nonzero;"/><path d="M35.969,18.718c-0.497,0 -0.9,0.405 -0.9,0.902c0,0.496 0.403,0.9 0.9,0.9c0.497,0 0.901,-0.404 0.901,-0.9c0,-0.497 -0.404,-0.902 -0.901,-0.902" style="fill:#373f49;fill-rule:nonzero;"/><path d="M38.074,17.362c-0.496,0 -0.9,0.404 -0.9,0.901c0,0.497 0.404,0.9 0.9,0.9c0.497,0 0.902,-0.403 0.902,-0.9c0,-0.497 -0.405,-0.901 -0.902,-0.901" style="fill:#373f49;fill-rule:nonzero;"/><path d="M38.732,21.313c0,-0.497 -0.404,-0.901 -0.901,-0.901c-0.496,0 -0.9,0.404 -0.9,0.901c0,0.496 0.404,0.9 0.9,0.9c0.497,0 0.901,-0.404 0.901,-0.9" style="fill:#373f49;fill-rule:nonzero;"/><path d="M36.551,22.664c0,-0.497 -0.405,-0.902 -0.901,-0.902c-0.498,0 -0.901,0.405 -0.901,0.902c0,0.496 0.403,0.9 0.901,0.9c0.496,0 0.901,-0.404 0.901,-0.9" style="fill:#373f49;fill-rule:nonzero;"/><path d="M32.545,23.925c0.497,0 0.901,-0.403 0.901,-0.9c0,-0.497 -0.404,-0.901 -0.901,-0.901c-0.497,0 -0.9,0.404 -0.9,0.901c0,0.497 0.403,0.9 0.9,0.9" style="fill:#373f49;fill-rule:nonzero;"/><path d="M31.134,26.033c0.498,0 0.902,-0.403 0.902,-0.9c0,-0.497 -0.404,-0.901 -0.902,-0.901c-0.496,0 -0.9,0.404 -0.9,0.901c0,0.497 0.404,0.9 0.9,0.9" style="fill:#373f49;fill-rule:nonzero;"/><path d="M29.586,28.269c0.498,0 0.902,-0.403 0.902,-0.9c0,-0.497 -0.404,-0.901 -0.902,-0.901c-0.495,0 -0.899,0.404 -0.899,0.901c0,0.497 0.404,0.9 0.899,0.9" style="fill:#373f49;fill-rule:nonzero;"/><path d="M34.863,21.023c0,-0.496 -0.404,-0.901 -0.901,-0.901c-0.496,0 -0.899,0.405 -0.899,0.901c0,0.497 0.403,0.9 0.899,0.9c0.497,0 0.901,-0.403 0.901,-0.9" style="fill:#373f49;fill-rule:nonzero;"/><path d="M40.184,19.01c-0.496,0 -0.9,0.404 -0.9,0.901c0,0.497 0.404,0.9 0.9,0.9c0.498,0 0.902,-0.403 0.902,-0.9c0,-0.497 -0.404,-0.901 -0.902,-0.901" style="fill:#373f49;fill-rule:nonzero;"/><path d="M39.849,22.255c-0.497,0 -0.9,0.404 -0.9,0.901c0,0.497 0.403,0.9 0.9,0.9c0.497,0 0.901,-0.403 0.901,-0.9c0,-0.497 -0.404,-0.901 -0.901,-0.901" style="fill:#373f49;fill-rule:nonzero;"/><path d="M42.066,24.192c-0.498,0 -0.901,0.404 -0.901,0.901c0,0.497 0.403,0.9 0.901,0.9c0.496,0 0.9,-0.403 0.9,-0.9c0,-0.497 -0.404,-0.901 -0.9,-0.901" style="fill:#373f49;fill-rule:nonzero;"/><path d="M39.333,25.46c-0.496,0 -0.9,0.404 -0.9,0.901c0,0.497 0.404,0.9 0.9,0.9c0.497,0 0.902,-0.403 0.902,-0.9c0,-0.497 -0.405,-0.901 -0.902,-0.901" style="fill:#373f49;fill-rule:nonzero;"/><path d="M38.35,24.511c0,-0.498 -0.405,-0.902 -0.902,-0.902c-0.496,0 -0.899,0.404 -0.899,0.902c0,0.496 0.403,0.9 0.899,0.9c0.497,0 0.902,-0.404 0.902,-0.9" style="fill:#373f49;fill-rule:nonzero;"/><path d="M36.109,27.809c0.497,0 0.9,-0.404 0.9,-0.9c0,-0.498 -0.403,-0.902 -0.9,-0.902c-0.497,0 -0.9,0.404 -0.9,0.902c0,0.496 0.403,0.9 0.9,0.9" style="fill:#373f49;fill-rule:nonzero;"/><path d="M32.839,28.147c0.497,0 0.901,-0.403 0.901,-0.9c0,-0.497 -0.404,-0.901 -0.901,-0.901c-0.497,0 -0.9,0.404 -0.9,0.901c0,0.497 0.403,0.9 0.9,0.9" style="fill:#373f49;fill-rule:nonzero;"/><path d="M35.148,24.906c0,-0.496 -0.404,-0.901 -0.902,-0.901c-0.496,0 -0.899,0.405 -0.899,0.901c0,0.497 0.403,0.9 0.899,0.9c0.498,0 0.902,-0.403 0.902,-0.9" style="fill:#373f49;fill-rule:nonzero;"/><path d="M41.431,27.568c-0.497,0 -0.901,0.404 -0.901,0.902c0,0.496 0.404,0.9 0.901,0.9c0.497,0 0.901,-0.404 0.901,-0.9c0,-0.498 -0.404,-0.902 -0.901,-0.902" style="fill:#373f49;fill-rule:nonzero;"/><path d="M38.012,28.218c-0.496,0 -0.9,0.405 -0.9,0.902c0,0.496 0.404,0.901 0.9,0.901c0.498,0 0.902,-0.405 0.902,-0.901c0,-0.497 -0.404,-0.902 -0.902,-0.902" style="fill:#373f49;fill-rule:nonzero;"/><path d="M36.537,30.842c-0.497,0 -0.901,0.404 -0.901,0.901c0,0.497 0.404,0.9 0.901,0.9c0.496,0 0.901,-0.403 0.901,-0.9c0,-0.497 -0.405,-0.901 -0.901,-0.901" style="fill:#373f49;fill-rule:nonzero;"/><path d="M34.613,28.588c-0.497,0 -0.901,0.404 -0.901,0.901c0,0.497 0.404,0.9 0.901,0.9c0.497,0 0.901,-0.403 0.901,-0.9c0,-0.497 -0.404,-0.901 -0.901,-0.901" style="fill:#373f49;fill-rule:nonzero;"/><path d="M33.05,31.293c-0.497,0 -0.9,0.405 -0.9,0.902c0,0.496 0.403,0.9 0.9,0.9c0.497,0 0.901,-0.404 0.901,-0.9c0,-0.497 -0.404,-0.902 -0.901,-0.902" style="fill:#373f49;fill-rule:nonzero;"/><path d="M31.217,28.813c-0.496,0 -0.9,0.404 -0.9,0.901c0,0.497 0.404,0.9 0.9,0.9c0.498,0 0.902,-0.403 0.902,-0.9c0,-0.497 -0.404,-0.901 -0.902,-0.901" style="fill:#373f49;fill-rule:nonzero;"/><path d="M29.6,31.467c-0.496,0 -0.9,0.405 -0.9,0.902c0,0.496 0.404,0.9 0.9,0.9c0.497,0 0.902,-0.404 0.902,-0.9c0,-0.497 -0.405,-0.902 -0.902,-0.902" style="fill:#373f49;fill-rule:nonzero;"/><path d="M27.873,28.813c-0.497,0 -0.9,0.404 -0.9,0.901c0,0.497 0.403,0.9 0.9,0.9c0.497,0 0.901,-0.403 0.901,-0.9c0,-0.497 -0.404,-0.901 -0.901,-0.901" style="fill:#373f49;fill-rule:nonzero;"/><path d="M26.063,31.303c-0.497,0 -0.9,0.405 -0.9,0.902c0,0.496 0.403,0.9 0.9,0.9c0.497,0 0.901,-0.404 0.901,-0.9c0,-0.497 -0.404,-0.902 -0.901,-0.902" style="fill:#373f49;fill-rule:nonzero;"/><path d="M22.669,30.839c-0.496,0 -0.9,0.405 -0.9,0.901c0,0.497 0.404,0.9 0.9,0.9c0.498,0 0.902,-0.403 0.902,-0.9c0,-0.496 -0.404,-0.901 -0.902,-0.901" style="fill:#373f49;fill-rule:nonzero;"/><path d="M42.438,20.774c-0.496,0 -0.9,0.405 -0.9,0.902c0,0.496 0.404,0.9 0.9,0.9c0.498,0 0.902,-0.404 0.902,-0.9c0,-0.497 -0.404,-0.902 -0.902,-0.902" style="fill:#373f49;fill-rule:nonzero;"/><path d="M44.692,22.632c-0.496,0 -0.9,0.404 -0.9,0.901c0,0.497 0.404,0.9 0.9,0.9c0.498,0 0.902,-0.403 0.902,-0.9c0,-0.497 -0.404,-0.901 -0.902,-0.901" style="fill:#373f49;fill-rule:nonzero;"/><path d="M45.146,19.209c-0.496,0 -0.9,0.405 -0.9,0.902c0,0.496 0.404,0.901 0.9,0.901c0.498,0 0.902,-0.405 0.902,-0.901c0,-0.497 -0.404,-0.902 -0.902,-0.902" style="fill:#373f49;fill-rule:nonzero;"/><path d="M42.645,17.422c-0.498,0 -0.901,0.404 -0.901,0.901c0,0.497 0.403,0.9 0.901,0.9c0.496,0 0.901,-0.403 0.901,-0.9c0,-0.497 -0.405,-0.901 -0.901,-0.901" style="fill:#373f49;fill-rule:nonzero;"/><path d="M45.298,15.718c-0.497,0 -0.9,0.404 -0.9,0.901c0,0.497 0.403,0.9 0.9,0.9c0.497,0 0.901,-0.403 0.901,-0.9c0,-0.497 -0.404,-0.901 -0.901,-0.901" style="fill:#373f49;fill-rule:nonzero;"/><path d="M42.643,14.089c-0.496,0 -0.899,0.405 -0.899,0.902c0,0.496 0.403,0.9 0.899,0.9c0.497,0 0.902,-0.404 0.902,-0.9c0,-0.497 -0.405,-0.902 -0.902,-0.902" style="fill:#373f49;fill-rule:nonzero;"/><path d="M44.235,13.139c0,0.496 0.404,0.9 0.9,0.9c0.497,0 0.902,-0.404 0.902,-0.9c0,-0.497 -0.405,-0.902 -0.902,-0.902c-0.496,0 -0.9,0.405 -0.9,0.902" style="fill:#373f49;fill-rule:nonzero;"/><path d="M41.521,11.585c0,0.497 0.404,0.9 0.9,0.9c0.498,0 0.902,-0.403 0.902,-0.9c0,-0.497 -0.404,-0.901 -0.902,-0.901c-0.496,0 -0.9,0.404 -0.9,0.901" style="fill:#373f49;fill-rule:nonzero;"/><path d="M44.691,10.575c0.497,0 0.9,-0.403 0.9,-0.9c0,-0.497 -0.403,-0.901 -0.9,-0.901c-0.497,0 -0.9,0.404 -0.9,0.901c0,0.497 0.403,0.9 0.9,0.9" style="fill:#373f49;fill-rule:nonzero;"/><path d="M41.16,8.202c0,0.497 0.403,0.9 0.899,0.9c0.498,0 0.902,-0.403 0.902,-0.9c0,-0.497 -0.404,-0.901 -0.902,-0.901c-0.496,0 -0.899,0.404 -0.899,0.901" style="fill:#373f49;fill-rule:nonzero;"/><path d="M41.424,5.731c0.497,0 0.901,-0.403 0.901,-0.9c0,-0.497 -0.404,-0.901 -0.901,-0.901c-0.496,0 -0.9,0.404 -0.9,0.901c0,0.497 0.404,0.9 0.9,0.9" style="fill:#373f49;fill-rule:nonzero;"/><path d="M38.45,6.915c0,0.495 0.404,0.9 0.9,0.9c0.497,0 0.902,-0.405 0.902,-0.9c0,-0.498 -0.405,-0.902 -0.902,-0.902c-0.496,0 -0.9,0.404 -0.9,0.902" style="fill:#373f49;fill-rule:nonzero;"/><path d="M37.431,7.871c-0.497,0 -0.9,0.404 -0.9,0.901c0,0.497 0.403,0.9 0.9,0.9c0.497,0 0.901,-0.403 0.901,-0.9c0,-0.497 -0.404,-0.901 -0.901,-0.901" style="fill:#373f49;fill-rule:nonzero;"/><path d="M34.744,10.607c0,0.496 0.404,0.9 0.9,0.9c0.497,0 0.902,-0.404 0.902,-0.9c0,-0.497 -0.405,-0.901 -0.902,-0.901c-0.496,0 -0.9,0.404 -0.9,0.901" style="fill:#373f49;fill-rule:nonzero;"/><path d="M34.259,7.474c-0.496,0 -0.9,0.405 -0.9,0.901c0,0.497 0.404,0.9 0.9,0.9c0.497,0 0.902,-0.403 0.902,-0.9c0,-0.496 -0.405,-0.901 -0.902,-0.901" style="fill:#373f49;fill-rule:nonzero;"/><path d="M32.829,5.146c-0.497,0 -0.9,0.404 -0.9,0.901c0,0.497 0.403,0.9 0.9,0.9c0.497,0 0.901,-0.403 0.901,-0.9c0,-0.497 -0.404,-0.901 -0.901,-0.901" style="fill:#373f49;fill-rule:nonzero;"/><path d="M31.147,7.229c-0.497,0 -0.9,0.404 -0.9,0.902c0,0.496 0.403,0.9 0.9,0.9c0.496,0 0.9,-0.404 0.9,-0.9c0,-0.498 -0.404,-0.902 -0.9,-0.902" style="fill:#373f49;fill-rule:nonzero;"/><path d="M27.942,7.249c-0.496,0 -0.9,0.404 -0.9,0.902c0,0.496 0.404,0.9 0.9,0.9c0.498,0 0.902,-0.404 0.902,-0.9c0,-0.498 -0.404,-0.902 -0.902,-0.902" style="fill:#373f49;fill-rule:nonzero;"/><path d="M26.587,9.363c-0.496,0 -0.9,0.405 -0.9,0.902c0,0.496 0.404,0.9 0.9,0.9c0.497,0 0.901,-0.404 0.901,-0.9c0,-0.497 -0.404,-0.902 -0.901,-0.902" style="fill:#373f49;fill-rule:nonzero;"/><path d="M27.198,12.075c0,0.496 0.404,0.9 0.9,0.9c0.498,0 0.902,-0.404 0.902,-0.9c0,-0.497 -0.404,-0.902 -0.902,-0.902c-0.496,0 -0.9,0.405 -0.9,0.902" style="fill:#373f49;fill-rule:nonzero;"/><path d="M24.276,12.253c0,0.497 0.403,0.9 0.901,0.9c0.496,0 0.9,-0.403 0.9,-0.9c0,-0.497 -0.404,-0.901 -0.9,-0.901c-0.498,0 -0.901,0.404 -0.901,0.901" style="fill:#373f49;fill-rule:nonzero;"/><path d="M23.17,12.765c-0.497,0 -0.9,0.405 -0.9,0.902c0,0.496 0.403,0.9 0.9,0.9c0.497,0 0.901,-0.404 0.901,-0.9c0,-0.497 -0.404,-0.902 -0.901,-0.902" style="fill:#373f49;fill-rule:nonzero;"/><path d="M21.059,15.963c0.498,0 0.902,-0.403 0.902,-0.9c0,-0.497 -0.404,-0.902 -0.902,-0.902c-0.496,0 -0.9,0.405 -0.9,0.902c0,0.497 0.404,0.9 0.9,0.9" style="fill:#373f49;fill-rule:nonzero;"/><path d="M20.388,11.96c0,0.496 0.403,0.9 0.9,0.9c0.497,0 0.9,-0.404 0.9,-0.9c0,-0.497 -0.403,-0.901 -0.9,-0.901c-0.497,0 -0.9,0.404 -0.9,0.901" style="fill:#373f49;fill-rule:nonzero;"/><path d="M18.042,13.361c0,0.496 0.403,0.9 0.899,0.9c0.497,0 0.902,-0.404 0.902,-0.9c0,-0.497 -0.405,-0.902 -0.902,-0.902c-0.496,0 -0.899,0.405 -0.899,0.902" style="fill:#373f49;fill-rule:nonzero;"/><path d="M16.474,15.874c0.497,0 0.901,-0.404 0.901,-0.9c0,-0.498 -0.404,-0.902 -0.901,-0.902c-0.497,0 -0.9,0.404 -0.9,0.902c0,0.496 0.403,0.9 0.9,0.9" style="fill:#373f49;fill-rule:nonzero;"/><path d="M13.982,14.032c0.498,0 0.902,-0.403 0.902,-0.9c0,-0.497 -0.404,-0.901 -0.902,-0.901c-0.496,0 -0.9,0.404 -0.9,0.901c0,0.497 0.404,0.9 0.9,0.9" style="fill:#373f49;fill-rule:nonzero;"/><path d="M16.707,12.493c0.497,0 0.901,-0.403 0.901,-0.9c0,-0.497 -0.404,-0.901 -0.901,-0.901c-0.497,0 -0.9,0.404 -0.9,0.901c0,0.497 0.403,0.9 0.9,0.9" style="fill:#373f49;fill-rule:nonzero;"/><path d="M14.449,8.761c-0.496,0 -0.9,0.404 -0.9,0.901c0,0.497 0.404,0.9 0.9,0.9c0.497,0 0.902,-0.403 0.902,-0.9c0,-0.497 -0.405,-0.901 -0.902,-0.901" style="fill:#373f49;fill-rule:nonzero;"/><path d="M17.099,9.106c0.497,0 0.901,-0.404 0.901,-0.9c0,-0.498 -0.404,-0.902 -0.901,-0.902c-0.496,0 -0.899,0.404 -0.899,0.902c0,0.496 0.403,0.9 0.899,0.9" style="fill:#373f49;fill-rule:nonzero;"/><path d="M19.282,9.197c-0.497,0 -0.9,0.404 -0.9,0.902c0,0.496 0.403,0.9 0.9,0.9c0.497,0 0.901,-0.404 0.901,-0.9c0,-0.498 -0.404,-0.902 -0.901,-0.902" style="fill:#373f49;fill-rule:nonzero;"/><path d="M20.815,8.764c0,0.496 0.403,0.9 0.9,0.9c0.497,0 0.901,-0.404 0.901,-0.9c0,-0.498 -0.404,-0.901 -0.901,-0.901c-0.497,0 -0.9,0.403 -0.9,0.901" style="fill:#373f49;fill-rule:nonzero;"/><path d="M22.577,10.61c0,0.495 0.403,0.9 0.9,0.9c0.497,0 0.901,-0.405 0.901,-0.9c0,-0.498 -0.404,-0.902 -0.901,-0.902c-0.497,0 -0.9,0.404 -0.9,0.902" style="fill:#373f49;fill-rule:nonzero;"/><path d="M18.828,17.506c0.497,0 0.901,-0.403 0.901,-0.9c0,-0.497 -0.404,-0.901 -0.901,-0.901c-0.496,0 -0.9,0.404 -0.9,0.901c0,0.497 0.404,0.9 0.9,0.9" style="fill:#373f49;fill-rule:nonzero;"/><path d="M29.603,9.257c-0.497,0 -0.9,0.404 -0.9,0.901c0,0.497 0.403,0.9 0.9,0.9c0.497,0 0.901,-0.403 0.901,-0.9c0,-0.497 -0.404,-0.901 -0.901,-0.901" style="fill:#373f49;fill-rule:nonzero;"/><path d="M36.103,5.45c-0.497,0 -0.901,0.404 -0.901,0.901c0,0.497 0.404,0.9 0.901,0.9c0.496,0 0.901,-0.403 0.901,-0.9c0,-0.497 -0.405,-0.901 -0.901,-0.901" style="fill:#373f49;fill-rule:nonzero;"/><path d="M37.113,4.133c0,0.497 0.404,0.9 0.9,0.9c0.497,0 0.902,-0.403 0.902,-0.9c0,-0.496 -0.405,-0.901 -0.902,-0.901c-0.496,0 -0.9,0.405 -0.9,0.901" style="fill:#373f49;fill-rule:nonzero;"/><path d="M34.621,4.679c0.497,0 0.901,-0.404 0.901,-0.9c0,-0.497 -0.404,-0.902 -0.901,-0.902c-0.497,0 -0.9,0.405 -0.9,0.902c0,0.496 0.403,0.9 0.9,0.9" style="fill:#373f49;fill-rule:nonzero;"/><path d="M36.542,2.424c0.498,0 0.901,-0.404 0.901,-0.9c0,-0.497 -0.403,-0.902 -0.901,-0.902c-0.496,0 -0.9,0.405 -0.9,0.902c0,0.496 0.404,0.9 0.9,0.9" style="fill:#373f49;fill-rule:nonzero;"/><path d="M33.058,1.983c0.496,0 0.9,-0.404 0.9,-0.9c0,-0.498 -0.404,-0.902 -0.9,-0.902c-0.498,0 -0.901,0.404 -0.901,0.902c0,0.496 0.403,0.9 0.901,0.9" style="fill:#373f49;fill-rule:nonzero;"/><path d="M29.59,1.802c0.497,0 0.901,-0.404 0.901,-0.901c0,-0.497 -0.404,-0.901 -0.901,-0.901c-0.496,0 -0.9,0.404 -0.9,0.901c0,0.497 0.404,0.901 0.9,0.901" style="fill:#373f49;fill-rule:nonzero;"/><path d="M26.057,1.973c0.497,0 0.901,-0.403 0.901,-0.9c0,-0.497 -0.404,-0.901 -0.901,-0.901c-0.497,0 -0.901,0.404 -0.901,0.901c0,0.497 0.404,0.9 0.901,0.9" style="fill:#373f49;fill-rule:nonzero;"/><path d="M22.666,2.432c0.497,0 0.902,-0.403 0.902,-0.9c0,-0.497 -0.405,-0.901 -0.902,-0.901c-0.496,0 -0.9,0.404 -0.9,0.901c0,0.497 0.404,0.9 0.9,0.9" style="fill:#373f49;fill-rule:nonzero;"/><path d="M27.848,4.466c0.497,0 0.901,-0.403 0.901,-0.9c0,-0.497 -0.404,-0.901 -0.901,-0.901c-0.496,0 -0.9,0.404 -0.9,0.901c0,0.497 0.404,0.9 0.9,0.9" style="fill:#373f49;fill-rule:nonzero;"/><path d="M24.509,4.688c0.497,0 0.902,-0.403 0.902,-0.9c0,-0.497 -0.405,-0.901 -0.902,-0.901c-0.496,0 -0.9,0.404 -0.9,0.901c0,0.497 0.404,0.9 0.9,0.9" style="fill:#373f49;fill-rule:nonzero;"/><path d="M23.032,5.461c-0.496,0 -0.9,0.404 -0.9,0.901c0,0.497 0.404,0.9 0.9,0.9c0.497,0 0.901,-0.403 0.901,-0.9c0,-0.497 -0.404,-0.901 -0.901,-0.901" style="fill:#373f49;fill-rule:nonzero;"/><path d="M19.776,7.823c0.497,0 0.902,-0.404 0.902,-0.9c0,-0.497 -0.405,-0.902 -0.902,-0.902c-0.496,0 -0.9,0.405 -0.9,0.902c0,0.496 0.404,0.9 0.9,0.9" style="fill:#373f49;fill-rule:nonzero;"/><path d="M17.872,5.717c0.497,0 0.902,-0.404 0.902,-0.9c0,-0.497 -0.405,-0.902 -0.902,-0.902c-0.496,0 -0.9,0.405 -0.9,0.902c0,0.496 0.404,0.9 0.9,0.9" style="fill:#373f49;fill-rule:nonzero;"/><path d="M21.136,5.046c0.497,0 0.901,-0.403 0.901,-0.9c0,-0.497 -0.404,-0.901 -0.901,-0.901c-0.497,0 -0.9,0.404 -0.9,0.901c0,0.497 0.403,0.9 0.9,0.9" style="fill:#373f49;fill-rule:nonzero;"/><path d="M23.979,8.364c0,0.495 0.404,0.9 0.9,0.9c0.498,0 0.902,-0.405 0.902,-0.9c0,-0.498 -0.404,-0.902 -0.902,-0.902c-0.496,0 -0.9,0.404 -0.9,0.902" style="fill:#373f49;fill-rule:nonzero;"/><path d="M26.275,5.133c-0.497,0 -0.9,0.404 -0.9,0.901c0,0.497 0.403,0.9 0.9,0.9c0.496,0 0.901,-0.403 0.901,-0.9c0,-0.497 -0.405,-0.901 -0.901,-0.901" style="fill:#373f49;fill-rule:nonzero;"/><path d="M31.212,4.465c0.497,0 0.901,-0.403 0.901,-0.9c0,-0.497 -0.404,-0.902 -0.901,-0.902c-0.497,0 -0.9,0.405 -0.9,0.902c0,0.497 0.403,0.9 0.9,0.9" style="fill:#373f49;fill-rule:nonzero;"/><path d="M29.595,4.996c-0.496,0 -0.9,0.404 -0.9,0.901c0,0.497 0.404,0.9 0.9,0.9c0.497,0 0.902,-0.403 0.902,-0.9c0,-0.497 -0.405,-0.901 -0.902,-0.901" style="fill:#373f49;fill-rule:nonzero;"/><path d="M34.832,12.242c0,-0.497 -0.404,-0.901 -0.901,-0.901c-0.496,0 -0.9,0.404 -0.9,0.901c0,0.497 0.404,0.9 0.9,0.9c0.497,0 0.901,-0.403 0.901,-0.9" style="fill:#373f49;fill-rule:nonzero;"/><path d="M32.423,12.894c-0.495,0 -0.899,0.404 -0.899,0.901c0,0.497 0.404,0.9 0.899,0.9c0.498,0 0.902,-0.403 0.902,-0.9c0,-0.497 -0.404,-0.901 -0.902,-0.901" style="fill:#373f49;fill-rule:nonzero;"/><path d="M30.112,12.036c0,0.497 0.403,0.9 0.9,0.9c0.497,0 0.901,-0.403 0.901,-0.9c0,-0.497 -0.404,-0.901 -0.901,-0.901c-0.497,0 -0.9,0.404 -0.9,0.901" style="fill:#373f49;fill-rule:nonzero;"/><path d="M29.588,12.834c-0.496,0 -0.9,0.405 -0.9,0.902c0,0.496 0.404,0.9 0.9,0.9c0.497,0 0.901,-0.404 0.901,-0.9c0,-0.497 -0.404,-0.902 -0.901,-0.902" style="fill:#373f49;fill-rule:nonzero;"/><path d="M27.273,15.25c0,0.496 0.404,0.9 0.9,0.9c0.497,0 0.902,-0.404 0.902,-0.9c0,-0.497 -0.405,-0.902 -0.902,-0.902c-0.496,0 -0.9,0.405 -0.9,0.902" style="fill:#373f49;fill-rule:nonzero;"/><path d="M26.733,12.911c-0.497,0 -0.9,0.404 -0.9,0.901c0,0.497 0.403,0.9 0.9,0.9c0.497,0 0.901,-0.403 0.901,-0.9c0,-0.497 -0.404,-0.901 -0.901,-0.901" style="fill:#373f49;fill-rule:nonzero;"/><path d="M26.651,17.524c0.496,0 0.901,-0.404 0.901,-0.9c0,-0.497 -0.405,-0.902 -0.901,-0.902c-0.497,0 -0.901,0.405 -0.901,0.902c0,0.496 0.404,0.9 0.901,0.9" style="fill:#373f49;fill-rule:nonzero;"/><path d="M24.967,16.119c0.497,0 0.901,-0.403 0.901,-0.9c0,-0.497 -0.404,-0.901 -0.901,-0.901c-0.496,0 -0.9,0.404 -0.9,0.901c0,0.497 0.404,0.9 0.9,0.9" style="fill:#373f49;fill-rule:nonzero;"/><path d="M24.974,19.009c0.498,0 0.902,-0.404 0.902,-0.9c0,-0.498 -0.404,-0.902 -0.902,-0.902c-0.495,0 -0.899,0.404 -0.899,0.902c0,0.496 0.404,0.9 0.899,0.9" style="fill:#373f49;fill-rule:nonzero;"/><path d="M23.071,17.503c0.497,0 0.901,-0.403 0.901,-0.9c0,-0.497 -0.404,-0.901 -0.901,-0.901c-0.497,0 -0.9,0.404 -0.9,0.901c0,0.497 0.403,0.9 0.9,0.9" style="fill:#373f49;fill-rule:nonzero;"/><path d="M23.215,20.537c0.496,0 0.901,-0.404 0.901,-0.9c0,-0.497 -0.405,-0.902 -0.901,-0.902c-0.497,0 -0.901,0.405 -0.901,0.902c0,0.496 0.404,0.9 0.901,0.9" style="fill:#373f49;fill-rule:nonzero;"/><path d="M21.061,19.158c0.497,0 0.901,-0.404 0.901,-0.9c0,-0.498 -0.404,-0.902 -0.901,-0.902c-0.496,0 -0.9,0.404 -0.9,0.902c0,0.496 0.404,0.9 0.9,0.9" style="fill:#373f49;fill-rule:nonzero;"/><path d="M21.311,22.248c0.498,0 0.902,-0.403 0.902,-0.9c0,-0.497 -0.404,-0.901 -0.902,-0.901c-0.495,0 -0.9,0.404 -0.9,0.901c0,0.497 0.405,0.9 0.9,0.9" style="fill:#373f49;fill-rule:nonzero;"/><path d="M19.285,24.084c0.496,0 0.901,-0.403 0.901,-0.9c0,-0.497 -0.405,-0.901 -0.901,-0.901c-0.497,0 -0.9,0.404 -0.9,0.901c0,0.497 0.403,0.9 0.9,0.9" style="fill:#373f49;fill-rule:nonzero;"/><path d="M17.593,21.694c0,-0.497 -0.404,-0.901 -0.901,-0.901c-0.496,0 -0.9,0.404 -0.9,0.901c0,0.497 0.404,0.9 0.9,0.9c0.497,0 0.901,-0.403 0.901,-0.9" style="fill:#373f49;fill-rule:nonzero;"/><path d="M14.891,20.131c0,-0.498 -0.405,-0.902 -0.901,-0.902c-0.498,0 -0.901,0.404 -0.901,0.902c0,0.495 0.403,0.9 0.901,0.9c0.496,0 0.901,-0.405 0.901,-0.9" style="fill:#373f49;fill-rule:nonzero;"/><path d="M16.474,19.237c0.497,0 0.901,-0.404 0.901,-0.9c0,-0.497 -0.404,-0.902 -0.901,-0.902c-0.497,0 -0.9,0.405 -0.9,0.902c0,0.496 0.403,0.9 0.9,0.9" style="fill:#373f49;fill-rule:nonzero;"/><path d="M13.83,17.508c0.497,0 0.901,-0.404 0.901,-0.9c0,-0.498 -0.404,-0.902 -0.901,-0.902c-0.496,0 -0.9,0.404 -0.9,0.902c0,0.496 0.404,0.9 0.9,0.9" style="fill:#373f49;fill-rule:nonzero;"/><path d="M18.945,20.801c0.497,0 0.902,-0.403 0.902,-0.9c0,-0.497 -0.405,-0.902 -0.902,-0.902c-0.496,0 -0.9,0.405 -0.9,0.902c0,0.497 0.404,0.9 0.9,0.9" style="fill:#373f49;fill-rule:nonzero;"/><path d="M14.439,22.629c-0.497,0 -0.9,0.404 -0.9,0.901c0,0.497 0.403,0.9 0.9,0.9c0.497,0 0.901,-0.403 0.901,-0.9c0,-0.497 -0.404,-0.901 -0.901,-0.901" style="fill:#373f49;fill-rule:nonzero;"/><path d="M17.971,25.1c0,-0.498 -0.404,-0.902 -0.901,-0.902c-0.497,0 -0.9,0.404 -0.9,0.902c0,0.495 0.403,0.9 0.9,0.9c0.497,0 0.901,-0.405 0.901,-0.9" style="fill:#373f49;fill-rule:nonzero;"/><path d="M29.075,18.054c0,-0.497 -0.405,-0.901 -0.902,-0.901c-0.496,0 -0.9,0.404 -0.9,0.901c0,0.497 0.404,0.9 0.9,0.9c0.497,0 0.902,-0.403 0.902,-0.9" style="fill:#373f49;fill-rule:nonzero;"/><path d="M29.586,20.428c0.497,0 0.901,-0.404 0.901,-0.9c0,-0.497 -0.404,-0.902 -0.901,-0.902c-0.497,0 -0.9,0.405 -0.9,0.902c0,0.496 0.403,0.9 0.9,0.9" style="fill:#373f49;fill-rule:nonzero;"/><path d="M28.992,21.231c0,-0.497 -0.404,-0.902 -0.901,-0.902c-0.497,0 -0.901,0.405 -0.901,0.902c0,0.496 0.404,0.9 0.901,0.9c0.497,0 0.901,-0.404 0.901,-0.9" style="fill:#373f49;fill-rule:nonzero;"/><path d="M26.596,23.925c0.497,0 0.9,-0.403 0.9,-0.9c0,-0.497 -0.403,-0.901 -0.9,-0.901c-0.498,0 -0.9,0.404 -0.9,0.901c0,0.497 0.402,0.9 0.9,0.9" style="fill:#373f49;fill-rule:nonzero;"/><path d="M27.958,26.043c0.497,0 0.901,-0.404 0.901,-0.9c0,-0.497 -0.404,-0.902 -0.901,-0.902c-0.497,0 -0.9,0.405 -0.9,0.902c0,0.496 0.403,0.9 0.9,0.9" style="fill:#373f49;fill-rule:nonzero;"/><path d="M26.288,28.141c0.497,0 0.901,-0.404 0.901,-0.9c0,-0.497 -0.404,-0.902 -0.901,-0.902c-0.497,0 -0.9,0.405 -0.9,0.902c0,0.496 0.403,0.9 0.9,0.9" style="fill:#373f49;fill-rule:nonzero;"/><path d="M23.009,27.799c0.498,0 0.901,-0.403 0.901,-0.9c0,-0.497 -0.403,-0.901 -0.901,-0.901c-0.496,0 -0.899,0.404 -0.899,0.901c0,0.497 0.403,0.9 0.899,0.9" style="fill:#373f49;fill-rule:nonzero;"/><path d="M21.727,25.405c0.497,0 0.902,-0.404 0.902,-0.9c0,-0.498 -0.405,-0.902 -0.902,-0.902c-0.496,0 -0.9,0.404 -0.9,0.902c0,0.496 0.404,0.9 0.9,0.9" style="fill:#373f49;fill-rule:nonzero;"/><path d="M24.877,25.798c0.497,0 0.901,-0.404 0.901,-0.9c0,-0.497 -0.404,-0.902 -0.901,-0.902c-0.497,0 -0.9,0.405 -0.9,0.902c0,0.496 0.403,0.9 0.9,0.9" style="fill:#373f49;fill-rule:nonzero;"/><path d="M24.385,22.656c0,-0.498 -0.404,-0.902 -0.902,-0.902c-0.495,0 -0.9,0.404 -0.9,0.902c0,0.496 0.405,0.9 0.9,0.9c0.498,0 0.902,-0.404 0.902,-0.9" style="fill:#373f49;fill-rule:nonzero;"/><path d="M25.159,21.92c0.497,0 0.901,-0.403 0.901,-0.9c0,-0.497 -0.404,-0.901 -0.901,-0.901c-0.497,0 -0.9,0.404 -0.9,0.901c0,0.497 0.403,0.9 0.9,0.9" style="fill:#373f49;fill-rule:nonzero;"/><path d="M26.731,20.371c0.498,0 0.901,-0.403 0.901,-0.9c0,-0.497 -0.403,-0.901 -0.901,-0.901c-0.496,0 -0.9,0.404 -0.9,0.901c0,0.497 0.404,0.9 0.9,0.9" style="fill:#373f49;fill-rule:nonzero;"/><path d="M20.67,26.363c0,-0.497 -0.405,-0.901 -0.902,-0.901c-0.496,0 -0.9,0.404 -0.9,0.901c0,0.496 0.404,0.9 0.9,0.9c0.497,0 0.902,-0.404 0.902,-0.9" style="fill:#373f49;fill-rule:nonzero;"/><path d="M21.109,28.219c-0.496,0 -0.9,0.405 -0.9,0.902c0,0.496 0.404,0.9 0.9,0.9c0.497,0 0.901,-0.404 0.901,-0.9c0,-0.497 -0.404,-0.902 -0.901,-0.902" style="fill:#373f49;fill-rule:nonzero;"/><path d="M17.849,27.564c-0.498,0 -0.901,0.404 -0.901,0.902c0,0.496 0.403,0.9 0.901,0.9c0.496,0 0.9,-0.404 0.9,-0.9c0,-0.498 -0.404,-0.902 -0.9,-0.902" style="fill:#373f49;fill-rule:nonzero;"/><path d="M24.499,28.589c-0.497,0 -0.9,0.405 -0.9,0.902c0,0.496 0.403,0.9 0.9,0.9c0.497,0 0.901,-0.404 0.901,-0.9c0,-0.497 -0.404,-0.902 -0.901,-0.902" style="fill:#373f49;fill-rule:nonzero;"/><path d="M32.548,9.372c-0.496,0 -0.9,0.405 -0.9,0.902c0,0.496 0.404,0.9 0.9,0.9c0.497,0 0.901,-0.404 0.901,-0.9c0,-0.497 -0.404,-0.902 -0.901,-0.902" style="fill:#373f49;fill-rule:nonzero;"/><path d="M38.924,10.122c0,0.497 0.403,0.9 0.9,0.9c0.497,0 0.901,-0.403 0.901,-0.9c0,-0.497 -0.404,-0.901 -0.901,-0.901c-0.497,0 -0.9,0.404 -0.9,0.901" style="fill:#373f49;fill-rule:nonzero;"/><path d="M37.831,11.067c-0.496,0 -0.9,0.404 -0.9,0.901c0,0.497 0.404,0.9 0.9,0.9c0.497,0 0.901,-0.403 0.901,-0.9c0,-0.497 -0.404,-0.901 -0.901,-0.901" style="fill:#373f49;fill-rule:nonzero;"/><path d="M40.163,14.258c0.498,0 0.902,-0.404 0.902,-0.9c0,-0.498 -0.404,-0.902 -0.902,-0.902c-0.496,0 -0.9,0.404 -0.9,0.902c0,0.496 0.404,0.9 0.9,0.9" style="fill:#373f49;fill-rule:nonzero;"/><path d="M40.305,15.703c-0.497,0 -0.9,0.404 -0.9,0.901c0,0.497 0.403,0.901 0.9,0.901c0.497,0 0.9,-0.404 0.9,-0.901c0,-0.497 -0.403,-0.901 -0.9,-0.901" style="fill:#373f49;fill-rule:nonzero;"/><path d="M37.142,15.049c0,0.496 0.403,0.9 0.9,0.9c0.497,0 0.901,-0.404 0.901,-0.9c0,-0.498 -0.404,-0.902 -0.901,-0.902c-0.497,0 -0.9,0.404 -0.9,0.902" style="fill:#373f49;fill-rule:nonzero;"/><path d="M35.957,14.56c0.498,0 0.902,-0.404 0.902,-0.9c0,-0.498 -0.404,-0.902 -0.902,-0.902c-0.496,0 -0.9,0.404 -0.9,0.902c0,0.496 0.404,0.9 0.9,0.9" style="fill:#373f49;fill-rule:nonzero;"/><path d="M9.416,58.844c-1.199,-0.301 -1.809,-0.438 -1.809,-1.212c0,-0.681 0.541,-1.13 1.371,-1.13c1.234,0 1.327,0.982 1.35,1.268l1.718,0c0,-0.278 0,-0.948 -0.473,-1.547c-0.623,-0.783 -1.649,-0.979 -2.514,-0.979c-2.318,0 -3.3,1.21 -3.3,2.585c0,1.441 1.084,2.029 3.069,2.525c1.062,0.255 1.582,0.381 1.582,1.119c0,0.704 -0.611,1.166 -1.582,1.166c-1.535,0 -1.51,-1.19 -1.51,-1.581l-1.823,0c0.012,0.807 0.034,2.862 3.23,2.862c2.306,0 3.553,-1.212 3.553,-2.712c0,-1.627 -1.419,-2.019 -2.862,-2.364" style="fill:#373f49;fill-rule:nonzero;"/><path d="M15.691,56.166l-1.697,0.623l0,1.144l-1.118,0l0,1.129l1.118,0l0,3.195c0,0.485 0,1.57 1.721,1.57c0.276,0 0.773,-0.035 1.324,-0.185l0,-1.119c-0.207,0.023 -0.323,0.035 -0.575,0.035c-0.763,0 -0.763,-0.335 -0.773,-0.866l0,-2.63l1.384,0l0,-1.129l-1.384,0l0,-1.767Z" style="fill:#373f49;fill-rule:nonzero;"/><path d="M23.441,61.74l0,-3.842l-1.754,0l0,2.941c0,0.991 0,1.811 -1.097,1.811c-0.91,0 -0.91,-0.772 -0.91,-1.281l0,-3.471l-1.73,0l0,3.624c0,0.285 0,1.093 0.38,1.567c0.324,0.426 0.969,0.784 1.754,0.784c1.108,0 1.547,-0.67 1.72,-0.923l0.056,0.773l1.662,0c-0.023,-0.161 -0.035,-0.265 -0.047,-0.426c0,-0.151 -0.012,-0.302 -0.034,-1.557" style="fill:#373f49;fill-rule:nonzero;"/><path d="M31.411,56.166l-1.697,0.622l0,1.144l-2.504,0l0,-1.766l-1.694,0.622l0,1.144l-1.12,0l0,1.13l1.12,0l0,3.195c0,0.485 0,1.569 1.72,1.569c0.275,0 0.772,-0.034 1.324,-0.184l0,-1.119c-0.205,0.023 -0.322,0.035 -0.575,0.035c-0.76,0 -0.76,-0.335 -0.775,-0.866l0,-2.63l2.504,0l0,3.195c0,0.485 0,1.569 1.718,1.569c0.279,0 0.774,-0.034 1.328,-0.184l0,-1.119c-0.208,0.023 -0.322,0.035 -0.577,0.035c-0.76,0 -0.76,-0.335 -0.772,-0.866l0,-2.63l1.384,0l0,-1.13l-1.384,0l0,-1.766Z" style="fill:#373f49;fill-rule:nonzero;"/><path d="M37.684,58.693c-0.172,-0.255 -0.564,-0.831 -1.626,-0.831c-1.671,0 -2.491,1.409 -2.491,2.885c0,1.406 0.785,2.86 2.458,2.86c0.414,0 1.024,-0.079 1.567,-0.796c-0.011,0.89 -0.011,1.096 -0.08,1.385c-0.116,0.518 -0.555,0.76 -1.063,0.76c-0.91,0 -0.991,-0.633 -1.013,-0.805l-1.64,0c0.105,1.764 1.732,1.867 2.563,1.867c1.118,0 2.906,-0.206 2.906,-2.354l0,-4.303c0,-0.586 0.036,-0.981 0.081,-1.441l-1.604,0l-0.058,0.773ZM36.415,62.442c-1.141,0 -1.141,-1.407 -1.141,-1.695c0,-1.248 0.53,-1.743 1.175,-1.743c1.04,0 1.166,1.12 1.166,1.777c0,0.254 0,1.661 -1.2,1.661" style="fill:#373f49;fill-rule:nonzero;"/><path d="M45.44,59.905c0,-0.267 -0.011,-0.957 -0.405,-1.432c-0.575,-0.668 -1.591,-0.749 -2.076,-0.749c-0.552,0 -1.234,0.093 -1.764,0.473c-0.611,0.439 -0.647,1.061 -0.657,1.374l1.671,0c0,-0.139 0,-0.324 0.129,-0.519c0.149,-0.221 0.402,-0.325 0.645,-0.325c0.161,0 0.613,0.058 0.762,0.485c0.069,0.208 0.081,0.393 0.081,0.773c-0.567,0 -1.592,0 -2.307,0.324c-1.076,0.495 -1.236,1.348 -1.236,1.811c0,0.461 0.16,0.934 0.507,1.28c0.232,0.219 0.612,0.462 1.455,0.462c0.322,0 1.096,0 1.742,-0.935c0,0.173 0,0.437 0.058,0.796l1.546,0c-0.105,-0.485 -0.139,-0.98 -0.139,-1.477l-0.012,-2.341ZM43.502,62.42c-0.161,0.183 -0.415,0.335 -0.726,0.335c-0.567,0 -0.831,-0.438 -0.831,-0.831c0,-0.693 0.784,-1.039 1.881,-0.946c0,0.622 -0.025,1.072 -0.324,1.442" style="fill:#373f49;fill-rule:nonzero;"/><path d="M54.221,59.062l0,-1.13l-1.385,0l0,-1.766l-1.698,0.622l0,1.144l-1.118,0l0.002,0.005c-1.107,0.042 -1.452,0.603 -1.65,1.056l-0.035,-1.118l-1.604,0c0.034,0.334 0.081,1.176 0.081,1.452l0,4.396l1.708,0l0,-2.872c0,-0.727 -0.027,-1.789 1.833,-1.789l0.783,0l0,3.195c0,0.486 0,1.569 1.72,1.569c0.277,0 0.775,-0.034 1.327,-0.184l0,-1.12c-0.206,0.023 -0.323,0.036 -0.576,0.036c-0.762,0 -0.762,-0.336 -0.773,-0.866l0,-2.63l1.385,0Z" style="fill:#373f49;fill-rule:nonzero;"/><path d="M5.48,47.264c0,0.84 -0.093,1.164 -0.266,1.418c-0.46,0.715 -1.326,0.728 -1.614,0.728c-1.742,0 -1.811,-1.143 -1.811,-2.054l0,-5.233l-1.789,0l0,5.141c0,0.774 0.023,1.418 0.426,2.051c0.787,1.26 2.309,1.444 3.139,1.444c1.684,0 3.657,-0.796 3.657,-3.276l0,-5.36l-1.742,0l0,5.141Z" style="fill:#373f49;fill-rule:nonzero;"/><path d="M12.023,44.491c-1.269,0 -1.73,0.752 -1.892,1.017l-0.047,-0.877l-1.638,0c0.035,0.404 0.035,1.037 0.035,1.061l0,4.786l1.72,0l0,-3.413c0,-0.451 0.103,-0.739 0.206,-0.889c0.186,-0.277 0.521,-0.451 0.888,-0.451c0.44,0 0.705,0.243 0.832,0.496c0.091,0.184 0.091,0.393 0.091,0.636l0,3.621l1.742,0l0,-3.147c0,-1.086 -0.034,-1.386 -0.16,-1.743c-0.15,-0.404 -0.635,-1.097 -1.777,-1.097" style="fill:#373f49;fill-rule:nonzero;"/><rect x="15.26" y="44.641" width="1.706" height="5.837" style="fill:#373f49;fill-rule:nonzero;"/><path d="M20.922,48.609l-1.316,-3.955l-1.823,0l2.136,5.825l1.891,0l2.099,-5.825l-1.65,0l-1.337,3.955Z" style="fill:#373f49;fill-rule:nonzero;"/><path d="M27.079,44.455c-0.634,0 -1.188,0.186 -1.637,0.487c-0.98,0.68 -1.213,1.81 -1.213,2.757c0,0.935 0.221,1.719 0.751,2.273c0.61,0.633 1.558,0.726 2.056,0.726c0.851,0 1.612,-0.231 2.04,-0.681c0.472,-0.496 0.53,-0.991 0.553,-1.269l-1.558,0c-0.16,0.647 -0.588,0.808 -1.015,0.808c-1.187,0 -1.187,-1.177 -1.187,-1.558l3.91,0c0.023,-0.483 0.045,-1.338 -0.346,-2.135c-0.53,-1.084 -1.522,-1.408 -2.354,-1.408M25.926,46.926c0.036,-0.68 0.346,-1.304 1.097,-1.304c0.991,0 1.015,1.038 1.015,1.304l-2.112,0Z" style="fill:#373f49;fill-rule:nonzero;"/><path d="M32.431,45.75l-0.035,-1.119l-1.602,0c0.034,0.333 0.079,1.176 0.079,1.452l0,4.395l1.708,0l0,-2.871c0,-0.727 0.104,-1.615 1.834,-1.455l0,-1.533c-1.383,-0.069 -1.763,0.633 -1.984,1.131" style="fill:#373f49;fill-rule:nonzero;"/><path d="M38.486,47.018l-1.049,-0.289c-0.508,-0.138 -0.795,-0.219 -0.795,-0.611c0,-0.358 0.345,-0.577 0.805,-0.577c0.267,0 0.786,0.046 0.832,0.692l1.558,0c-0.047,-1.164 -1.015,-1.718 -2.215,-1.718c-1.511,0 -2.549,0.692 -2.549,1.821c0,1.188 1.002,1.477 1.476,1.615l1.062,0.29c0.668,0.185 0.807,0.393 0.807,0.657c0,0.347 -0.288,0.692 -0.901,0.692c-0.716,0 -0.945,-0.426 -0.968,-0.796l-1.604,0c0.012,0.278 0.047,0.739 0.427,1.142c0.53,0.553 1.246,0.714 1.996,0.714c1.812,0 2.676,-1.002 2.676,-2.006c0,-0.796 -0.496,-1.337 -1.558,-1.626" style="fill:#373f49;fill-rule:nonzero;"/><rect x="41.129" y="44.641" width="1.706" height="5.837" style="fill:#373f49;fill-rule:nonzero;"/><path d="M46.601,42.611l-1.696,0.311l0,1.767l-1.119,0l0,1.129l1.119,0l0,3.195c0,0.485 0,1.57 1.721,1.57c0.277,0 0.772,-0.035 1.325,-0.185l0,-1.119c-0.206,0.023 -0.322,0.035 -0.577,0.035c-0.759,0 -0.759,-0.335 -0.773,-0.866l0,-2.63l1.387,0l0,-1.129l-1.387,0l0,-2.078Z" style="fill:#373f49;fill-rule:nonzero;"/><path d="M54.061,46.661c0,-0.267 -0.013,-0.957 -0.404,-1.432c-0.578,-0.668 -1.592,-0.749 -2.078,-0.749c-0.553,0 -1.234,0.093 -1.765,0.473c-0.61,0.439 -0.644,1.061 -0.656,1.374l1.674,0c0,-0.139 0,-0.324 0.126,-0.519c0.149,-0.221 0.405,-0.325 0.646,-0.325c0.159,0 0.61,0.058 0.76,0.485c0.07,0.208 0.082,0.393 0.082,0.773c-0.567,0 -1.593,0 -2.307,0.324c-1.072,0.495 -1.236,1.348 -1.236,1.811c0,0.461 0.164,0.934 0.509,1.28c0.229,0.219 0.61,0.462 1.453,0.462c0.323,0 1.096,0 1.741,-0.935c0,0.173 0,0.437 0.059,0.796l1.545,0c-0.104,-0.485 -0.138,-0.98 -0.138,-1.477l-0.011,-2.341ZM52.121,49.176c-0.16,0.183 -0.414,0.335 -0.726,0.335c-0.563,0 -0.83,-0.438 -0.83,-0.831c0,-0.693 0.783,-1.039 1.881,-0.946c0,0.622 -0.022,1.072 -0.325,1.442" style="fill:#373f49;fill-rule:nonzero;"/><path d="M57.736,42.922l-1.695,0.623l0,1.144l-1.118,0l0,1.129l1.118,0l0,3.195c0,0.485 0,1.57 1.72,1.57c0.278,0 0.772,-0.035 1.326,-0.185l0,-1.119c-0.207,0.023 -0.323,0.035 -0.576,0.035c-0.76,0 -0.76,-0.335 -0.775,-0.866l0,-2.63l1.386,0l0,-1.129l-1.386,0l0,-1.767Z" style="fill:#373f49;fill-rule:nonzero;"/><path d="M50.495,43.82c0.464,0 0.839,-0.377 0.839,-0.839c0,-0.462 -0.375,-0.837 -0.839,-0.837c-0.462,0 -0.838,0.375 -0.838,0.837c0,0.462 0.376,0.839 0.838,0.839" style="fill:#373f49;fill-rule:nonzero;"/><path d="M52.734,43.82c0.463,0 0.839,-0.377 0.839,-0.839c0,-0.462 -0.376,-0.837 -0.839,-0.837c-0.462,0 -0.838,0.375 -0.838,0.837c0,0.462 0.376,0.839 0.838,0.839" style="fill:#373f49;fill-rule:nonzero;"/><path d="M42,42.063c-0.509,0 -0.919,0.413 -0.919,0.918c0,0.508 0.41,0.921 0.919,0.921c0.508,0 0.919,-0.413 0.919,-0.921c0,-0.505 -0.411,-0.918 -0.919,-0.918" style="fill:#373f49;fill-rule:nonzero;"/><path d="M16.112,42.063c-0.507,0 -0.92,0.413 -0.92,0.918c0,0.508 0.413,0.921 0.92,0.921c0.507,0 0.92,-0.413 0.92,-0.921c0,-0.505 -0.413,-0.918 -0.92,-0.918" style="fill:#373f49;fill-rule:nonzero;"/></svg>
