<?xml version="1.0" encoding="utf-8"?>
<!-- Generator: Adobe Illustrator 16.0.4, SVG Export Plug-In . SVG Version: 6.00 Build 0)  -->
<!DOCTYPE svg PUBLIC "-//W3C//DTD SVG 1.1//EN" "http://www.w3.org/Graphics/SVG/1.1/DTD/svg11.dtd">
<svg version="1.1" xmlns="http://www.w3.org/2000/svg" xmlns:xlink="http://www.w3.org/1999/xlink" x="0px" y="0px"
	 width="1027.2px" height="329.04px" viewBox="0 0 1027.2 329.04" enable-background="new 0 0 1027.2 329.04" xml:space="preserve">
<g id="Schrift">
	<g>
		<g>
			<path fill="#4D4D4D" d="M241.966,186.616V57.184h20.224v126.001c0,6.149,1.756,10.992,5.269,14.53
				c3.512,3.539,8.106,5.309,13.784,5.309v18.229C255.059,221.253,241.966,209.709,241.966,186.616z"/>
			<path fill="#4D4D4D" d="M400.672,163.668h-82.174c0,13.441,3.654,23.771,10.964,30.991c6.456,6.291,14.759,9.437,24.907,9.437
				c11.566,0,21.217-3.395,28.953-10.188l8.515,14.691c-3.123,3.146-7.913,5.862-14.37,8.149
				c-8.089,3.003-17.102,4.504-27.036,4.504c-14.335,0-26.504-4.896-36.51-14.691c-11.142-10.794-16.711-25.307-16.711-43.537
				c0-18.943,5.711-34.136,17.137-45.575c10.218-10.223,22.316-15.334,36.297-15.334c16.249,0,28.987,4.611,38.212,13.833
				c8.941,8.866,13.412,20.626,13.412,35.28C402.269,155.732,401.736,159.879,400.672,163.668z M351.602,119.273
				c-9.013,0-16.57,2.932-22.672,8.793c-5.819,5.576-9.119,12.511-9.899,20.804h63.121c0-8.22-2.555-15.083-7.664-20.589
				C368.88,122.275,361.251,119.273,351.602,119.273z"/>
			<path fill="#4D4D4D" d="M487.955,205.919c-8.09,10.224-20.474,15.334-37.148,15.334c-8.941,0-16.695-3.271-23.258-9.812
				c-6.564-6.542-9.846-14.673-9.846-24.396c0-11.651,5.056-21.5,15.168-29.543c10.112-8.042,23.008-12.064,38.691-12.064
				c4.258,0,9.083,0.93,14.477,2.788c0-18.587-8.233-27.881-24.695-27.881c-12.632,0-22.353,3.432-29.165,10.294l-8.516-17.05
				c3.832-3.145,9.136-5.844,15.913-8.096c6.776-2.252,13.252-3.378,19.426-3.378c16.534,0,28.543,3.79,36.031,11.367
				c7.486,7.579,11.23,19.624,11.23,36.138v41.179c0,10.08,2.98,16.8,8.94,20.16v10.187c-8.232,0-14.388-1.18-18.467-3.538
				C492.654,215.248,489.728,211.353,487.955,205.919z M486.039,162.703c-6.387-1.429-10.857-2.145-13.412-2.145
				c-10.218,0-18.557,2.646-25.014,7.935c-6.458,5.292-9.687,11.547-9.687,18.767c0,11.939,6.989,17.908,20.969,17.908
				c10.219,0,19.266-4.896,27.143-14.691V162.703z"/>
			<path fill="#4D4D4D" d="M600.038,123.884c-4.4-3.073-8.835-4.611-13.306-4.611c-7.168,0-13.43,3.324-18.787,9.973
				c-5.358,6.648-8.036,14.656-8.036,24.021v65.842h-20.224V104.26h20.224v18.337c7.38-13.654,18.343-20.482,32.891-20.482
				c3.619,0,8.835,0.644,15.647,1.93L600.038,123.884z"/>
			<path fill="#4D4D4D" d="M692.963,219.108v-66.807c0-12.225-1.828-20.785-5.482-25.683c-3.655-4.896-9.775-7.345-18.361-7.345
				c-4.613,0-9.438,1.394-14.476,4.182c-5.04,2.788-8.906,6.219-11.603,10.294v85.359h-20.224V104.26h13.837l6.387,14.798
				c6.669-11.294,17.563-16.943,32.678-16.943c24.978,0,37.468,15.299,37.468,45.896v71.097H692.963z"/>
			<path fill="#4D4D4D" d="M751.719,219.108v-97.691h-15.646V104.26h35.871v114.849H751.719z M762.789,60.83
				c3.476,0,6.439,1.233,8.888,3.7s3.673,5.416,3.673,8.847c0,3.503-1.225,6.487-3.673,8.954c-2.448,2.466-5.412,3.699-8.888,3.699
				c-3.406,0-6.333-1.233-8.781-3.699c-2.448-2.467-3.673-5.451-3.673-8.954c0-3.502,1.206-6.47,3.619-8.901
				C756.366,62.046,759.312,60.83,762.789,60.83z"/>
			<path fill="#4D4D4D" d="M874.234,219.108v-66.807c0-12.225-1.828-20.785-5.482-25.683c-3.655-4.896-9.775-7.345-18.361-7.345
				c-4.613,0-9.438,1.394-14.476,4.182c-5.04,2.788-8.906,6.219-11.603,10.294v85.359h-20.224V104.26h13.837l6.387,14.798
				c6.669-11.294,17.563-16.943,32.678-16.943c24.978,0,37.468,15.299,37.468,45.896v71.097H874.234z"/>
			<path fill="#4D4D4D" d="M919.047,250.528l10.963-16.3c11.779,7.936,22.636,11.903,32.571,11.903
				c9.154,0,16.374-1.592,21.661-4.772c5.286-3.182,7.931-7.131,7.931-11.85c0-9.294-6.671-13.94-20.012-13.94
				c-2.271,0-6.387,0.573-12.347,1.716c-5.961,1.145-10.609,1.716-13.944,1.716c-16.18,0-24.269-6.147-24.269-18.444
				c0-3.788,1.897-7.22,5.694-10.294c3.795-3.073,8.497-5.29,14.104-6.649c-16.038-7.576-24.056-20.731-24.056-39.462
				c0-12.01,4.151-22.019,12.453-30.026c8.303-8.006,18.557-12.01,30.763-12.01c11.211,0,19.975,2.324,26.291,6.97l10.112-12.225
				l13.198,12.546l-12.135,9.222c5.18,6.792,7.771,15.656,7.771,26.594c0,11.582-3.584,21.305-10.75,29.168
				c-7.169,7.865-16.57,12.369-28.208,13.512l-16.711,1.716c-1.987,0.214-4.648,0.983-7.983,2.306
				c-3.336,1.323-5.003,3.056-5.003,5.2c0,2.933,3.477,4.396,10.432,4.396c3.05,0,7.805-0.553,14.264-1.662
				c6.456-1.107,11.246-1.662,14.369-1.662c11.212,0,19.958,2.699,26.238,8.097c6.28,5.398,9.42,12.885,9.42,22.466
				c0,10.579-4.702,19.123-14.104,25.629c-9.403,6.505-21.307,9.759-35.712,9.759c-7.381,0-15.151-1.324-23.311-3.968
				C930.577,257.533,924.013,254.316,919.047,250.528z M961.943,118.522c-7.025,0-12.757,2.503-17.191,7.506
				c-4.436,5.005-6.652,11.083-6.652,18.23c0,8.008,2.146,14.638,6.439,19.892c4.293,5.255,10.094,7.882,17.404,7.882
				c7.166,0,12.772-2.555,16.817-7.667c4.045-5.111,6.067-11.813,6.067-20.107c0-7.147-2.183-13.225-6.546-18.23
				C973.918,121.025,968.471,118.522,961.943,118.522z"/>
		</g>
	</g>
	<g id="Koordinierungsstelle">
		<g>
			<path fill="#4D4D4D" d="M240.339,283.999V232.46h6.906v25.559l25.915-25.559h9.362l-21.892,20.883l22.854,30.656h-9.113
				l-18.582-26.086l-8.543,8.227v17.859H240.339z"/>
			<path fill="#4D4D4D" d="M286.046,265.331c0-6.914,1.946-12.035,5.838-15.363c3.251-2.766,7.214-4.148,11.89-4.148
				c5.197,0,9.445,1.682,12.744,5.045c3.298,3.363,4.948,8.01,4.948,13.939c0,4.805-0.73,8.584-2.189,11.338
				s-3.583,4.893-6.372,6.416c-2.789,1.523-5.833,2.285-9.131,2.285c-5.292,0-9.57-1.676-12.833-5.027
				C287.677,276.464,286.046,271.636,286.046,265.331z M292.631,265.331c0,4.781,1.056,8.361,3.168,10.74
				c2.112,2.379,4.77,3.568,7.974,3.568c3.18,0,5.826-1.195,7.938-3.586s3.168-6.035,3.168-10.934c0-4.617-1.062-8.115-3.186-10.494
				c-2.124-2.379-4.765-3.568-7.92-3.568c-3.204,0-5.862,1.184-7.974,3.551C293.687,256.976,292.631,260.55,292.631,265.331z"/>
			<path fill="#4D4D4D" d="M326.591,265.331c0-6.914,1.946-12.035,5.838-15.363c3.251-2.766,7.214-4.148,11.89-4.148
				c5.197,0,9.445,1.682,12.744,5.045c3.298,3.363,4.948,8.01,4.948,13.939c0,4.805-0.73,8.584-2.189,11.338
				s-3.583,4.893-6.372,6.416c-2.789,1.523-5.833,2.285-9.131,2.285c-5.292,0-9.57-1.676-12.833-5.027
				C328.223,276.464,326.591,271.636,326.591,265.331z M333.177,265.331c0,4.781,1.056,8.361,3.168,10.74
				c2.112,2.379,4.77,3.568,7.974,3.568c3.18,0,5.826-1.195,7.938-3.586s3.168-6.035,3.168-10.934c0-4.617-1.062-8.115-3.186-10.494
				c-2.124-2.379-4.765-3.568-7.92-3.568c-3.204,0-5.862,1.184-7.974,3.551C334.232,256.976,333.177,260.55,333.177,265.331z"/>
			<path fill="#4D4D4D" d="M369.45,283.999v-37.336h5.767v5.66c1.471-2.648,2.83-4.395,4.076-5.238
				c1.246-0.844,2.616-1.266,4.111-1.266c2.159,0,4.354,0.68,6.585,2.039l-2.207,5.871c-1.566-0.914-3.132-1.371-4.699-1.371
				c-1.4,0-2.658,0.416-3.773,1.248c-1.116,0.832-1.911,1.986-2.385,3.463c-0.712,2.25-1.068,4.711-1.068,7.383v19.547H369.45z"/>
			<path fill="#4D4D4D" d="M418.325,283.999v-4.711c-2.397,3.703-5.921,5.555-10.572,5.555c-3.014,0-5.785-0.82-8.312-2.461
				s-4.485-3.932-5.874-6.873s-2.083-6.322-2.083-10.143c0-3.727,0.628-7.107,1.887-10.143c1.258-3.035,3.144-5.361,5.66-6.979
				c2.515-1.617,5.327-2.426,8.437-2.426c2.278,0,4.307,0.475,6.087,1.424s3.227,2.186,4.343,3.709V232.46h6.372v51.539H418.325z
				 M398.07,265.366c0,4.781,1.02,8.355,3.062,10.723c2.041,2.367,4.45,3.551,7.226,3.551c2.8,0,5.18-1.131,7.137-3.393
				c1.958-2.262,2.937-5.713,2.937-10.354c0-5.109-0.997-8.859-2.99-11.25c-1.994-2.391-4.45-3.586-7.369-3.586
				c-2.848,0-5.227,1.148-7.137,3.445C399.025,256.8,398.07,260.421,398.07,265.366z"/>
			<path fill="#4D4D4D" d="M434.379,239.737v-7.277h6.407v7.277H434.379z M434.379,283.999v-37.336h6.407v37.336H434.379z"/>
			<path fill="#4D4D4D" d="M450.541,283.999v-37.336h5.767v5.309c2.777-4.102,6.787-6.152,12.032-6.152
				c2.278,0,4.373,0.404,6.283,1.213c1.91,0.809,3.34,1.869,4.289,3.182s1.614,2.871,1.994,4.676
				c0.237,1.172,0.356,3.223,0.356,6.152v22.957h-6.407v-22.711c0-2.578-0.25-4.506-0.748-5.783
				c-0.499-1.277-1.383-2.297-2.652-3.059s-2.759-1.143-4.467-1.143c-2.729,0-5.085,0.855-7.066,2.566
				c-1.982,1.711-2.973,4.957-2.973,9.738v20.391H450.541z"/>
			<path fill="#4D4D4D" d="M491.121,239.737v-7.277h6.407v7.277H491.121z M491.121,283.999v-37.336h6.407v37.336H491.121z"/>
			<path fill="#4D4D4D" d="M533.161,271.976l6.621,0.809c-1.045,3.82-2.979,6.785-5.802,8.895
				c-2.825,2.109-6.432,3.164-10.822,3.164c-5.529,0-9.914-1.682-13.153-5.045s-4.859-8.08-4.859-14.15
				c0-6.281,1.637-11.156,4.912-14.625s7.522-5.203,12.744-5.203c5.055,0,9.184,1.699,12.388,5.098s4.806,8.18,4.806,14.344
				c0,0.375-0.013,0.938-0.036,1.688h-28.192c0.237,4.102,1.412,7.242,3.523,9.422c2.112,2.18,4.747,3.27,7.903,3.27
				c2.35,0,4.354-0.609,6.016-1.828S532.188,274.647,533.161,271.976z M512.124,261.745h21.109
				c-0.285-3.141-1.092-5.496-2.421-7.066c-2.041-2.438-4.687-3.656-7.938-3.656c-2.943,0-5.417,0.973-7.423,2.918
				C513.446,255.886,512.337,258.487,512.124,261.745z"/>
			<path fill="#4D4D4D" d="M547.756,283.999v-37.336h5.767v5.66c1.472-2.648,2.83-4.395,4.076-5.238s2.616-1.266,4.111-1.266
				c2.159,0,4.354,0.68,6.586,2.039l-2.207,5.871c-1.566-0.914-3.133-1.371-4.699-1.371c-1.4,0-2.658,0.416-3.773,1.248
				s-1.91,1.986-2.385,3.463c-0.712,2.25-1.068,4.711-1.068,7.383v19.547H547.756z"/>
			<path fill="#4D4D4D" d="M596.88,283.999v-5.484c-2.942,4.219-6.941,6.328-11.996,6.328c-2.23,0-4.313-0.422-6.247-1.266
				c-1.935-0.844-3.37-1.904-4.308-3.182s-1.596-2.842-1.976-4.693c-0.262-1.242-0.392-3.211-0.392-5.906v-23.133h6.407v20.707
				c0,3.305,0.131,5.531,0.392,6.68c0.403,1.664,1.258,2.971,2.563,3.92c1.305,0.949,2.919,1.424,4.841,1.424
				c1.923,0,3.726-0.486,5.411-1.459c1.685-0.973,2.877-2.297,3.577-3.973s1.051-4.107,1.051-7.295v-20.004h6.407v37.336H596.88z"/>
			<path fill="#4D4D4D" d="M612.649,283.999v-37.336h5.767v5.309c2.776-4.102,6.787-6.152,12.032-6.152
				c2.278,0,4.372,0.404,6.282,1.213s3.341,1.869,4.29,3.182c0.948,1.312,1.613,2.871,1.993,4.676
				c0.237,1.172,0.356,3.223,0.356,6.152v22.957h-6.408v-22.711c0-2.578-0.249-4.506-0.747-5.783
				c-0.499-1.277-1.383-2.297-2.652-3.059s-2.759-1.143-4.467-1.143c-2.729,0-5.085,0.855-7.066,2.566s-2.973,4.957-2.973,9.738
				v20.391H612.649z"/>
			<path fill="#4D4D4D" d="M652.02,287.093l6.229,0.914c0.261,1.898,0.984,3.281,2.172,4.148c1.589,1.172,3.761,1.758,6.514,1.758
				c2.967,0,5.256-0.586,6.87-1.758s2.706-2.812,3.275-4.922c0.332-1.289,0.486-3.996,0.463-8.121
				c-2.801,3.258-6.289,4.887-10.466,4.887c-5.197,0-9.22-1.852-12.067-5.555s-4.271-8.145-4.271-13.324
				c0-3.562,0.652-6.85,1.958-9.861c1.305-3.012,3.197-5.338,5.678-6.979c2.479-1.641,5.393-2.461,8.738-2.461
				c4.462,0,8.14,1.781,11.035,5.344v-4.5h5.909v32.273c0,5.812-0.6,9.932-1.797,12.357c-1.199,2.426-3.098,4.342-5.696,5.748
				s-5.797,2.109-9.593,2.109c-4.51,0-8.152-1.002-10.929-3.006S651.925,291.124,652.02,287.093z M657.323,264.663
				c0,4.898,0.984,8.473,2.955,10.723c1.97,2.25,4.438,3.375,7.404,3.375c2.942,0,5.41-1.119,7.404-3.357
				c1.993-2.238,2.989-5.748,2.989-10.529c0-4.57-1.026-8.016-3.079-10.336s-4.526-3.48-7.422-3.48
				c-2.848,0-5.268,1.143-7.262,3.428C658.32,256.771,657.323,260.163,657.323,264.663z"/>
			<path fill="#4D4D4D" d="M691.177,272.854l6.337-0.984c0.355,2.508,1.347,4.43,2.972,5.766c1.626,1.336,3.898,2.004,6.817,2.004
				c2.942,0,5.126-0.592,6.55-1.775s2.136-2.572,2.136-4.166c0-1.43-0.629-2.555-1.887-3.375c-0.878-0.562-3.062-1.277-6.55-2.145
				c-4.698-1.172-7.956-2.186-9.771-3.041s-3.191-2.039-4.129-3.551s-1.406-3.182-1.406-5.01c0-1.664,0.386-3.205,1.157-4.623
				c0.771-1.418,1.82-2.596,3.15-3.533c0.996-0.727,2.354-1.342,4.075-1.846s3.565-0.756,5.535-0.756
				c2.967,0,5.571,0.422,7.814,1.266c2.242,0.844,3.897,1.986,4.966,3.428c1.067,1.441,1.803,3.369,2.207,5.783l-6.266,0.844
				c-0.285-1.922-1.109-3.422-2.474-4.5c-1.365-1.078-3.293-1.617-5.785-1.617c-2.942,0-5.043,0.48-6.301,1.441
				s-1.886,2.086-1.886,3.375c0,0.82,0.261,1.559,0.782,2.215c0.522,0.68,1.341,1.242,2.457,1.688
				c0.641,0.234,2.527,0.773,5.659,1.617c4.533,1.195,7.695,2.174,9.487,2.936c1.791,0.762,3.197,1.869,4.218,3.322
				s1.531,3.258,1.531,5.414c0,2.109-0.623,4.096-1.869,5.959s-3.044,3.305-5.393,4.324c-2.35,1.02-5.008,1.529-7.975,1.529
				c-4.912,0-8.656-1.008-11.23-3.023C693.532,279.804,691.889,276.815,691.177,272.854z"/>
			<path fill="#4D4D4D" d="M727.628,272.854l6.337-0.984c0.355,2.508,1.347,4.43,2.972,5.766c1.626,1.336,3.898,2.004,6.817,2.004
				c2.942,0,5.126-0.592,6.55-1.775s2.136-2.572,2.136-4.166c0-1.43-0.629-2.555-1.887-3.375c-0.878-0.562-3.062-1.277-6.55-2.145
				c-4.698-1.172-7.956-2.186-9.771-3.041s-3.191-2.039-4.129-3.551s-1.406-3.182-1.406-5.01c0-1.664,0.386-3.205,1.157-4.623
				c0.771-1.418,1.82-2.596,3.15-3.533c0.996-0.727,2.354-1.342,4.075-1.846s3.565-0.756,5.535-0.756
				c2.967,0,5.571,0.422,7.814,1.266c2.242,0.844,3.897,1.986,4.966,3.428c1.067,1.441,1.803,3.369,2.207,5.783l-6.266,0.844
				c-0.285-1.922-1.109-3.422-2.474-4.5c-1.365-1.078-3.293-1.617-5.785-1.617c-2.942,0-5.043,0.48-6.301,1.441
				s-1.886,2.086-1.886,3.375c0,0.82,0.261,1.559,0.782,2.215c0.522,0.68,1.341,1.242,2.457,1.688
				c0.641,0.234,2.527,0.773,5.659,1.617c4.533,1.195,7.695,2.174,9.487,2.936c1.791,0.762,3.197,1.869,4.218,3.322
				s1.531,3.258,1.531,5.414c0,2.109-0.623,4.096-1.869,5.959s-3.044,3.305-5.393,4.324c-2.35,1.02-5.008,1.529-7.975,1.529
				c-4.912,0-8.656-1.008-11.23-3.023C729.983,279.804,728.34,276.815,727.628,272.854z"/>
			<path fill="#4D4D4D" d="M780.632,278.339l0.926,5.59c-1.804,0.375-3.417,0.562-4.841,0.562c-2.326,0-4.13-0.363-5.411-1.09
				s-2.184-1.682-2.705-2.865c-0.522-1.184-0.783-3.674-0.783-7.471v-21.48h-4.699v-4.922h4.699v-9.246l6.372-3.797v13.043h6.442
				v4.922h-6.442v21.832c0,1.805,0.112,2.965,0.338,3.48s0.593,0.926,1.104,1.23c0.51,0.305,1.239,0.457,2.189,0.457
				C778.532,278.585,779.469,278.503,780.632,278.339z"/>
			<path fill="#4D4D4D" d="M812.776,271.976l6.621,0.809c-1.045,3.82-2.979,6.785-5.802,8.895
				c-2.825,2.109-6.432,3.164-10.822,3.164c-5.529,0-9.913-1.682-13.153-5.045c-3.239-3.363-4.858-8.08-4.858-14.15
				c0-6.281,1.638-11.156,4.912-14.625c3.275-3.469,7.522-5.203,12.744-5.203c5.055,0,9.184,1.699,12.388,5.098
				s4.806,8.18,4.806,14.344c0,0.375-0.013,0.938-0.036,1.688h-28.192c0.236,4.102,1.411,7.242,3.524,9.422
				c2.111,2.18,4.746,3.27,7.902,3.27c2.35,0,4.354-0.609,6.016-1.828S811.803,274.647,812.776,271.976z M791.738,261.745h21.109
				c-0.285-3.141-1.092-5.496-2.421-7.066c-2.041-2.438-4.687-3.656-7.938-3.656c-2.943,0-5.417,0.973-7.422,2.918
				C793.062,255.886,791.952,258.487,791.738,261.745z"/>
			<path fill="#4D4D4D" d="M827.3,283.999V232.46h6.407v51.539H827.3z"/>
			<path fill="#4D4D4D" d="M843.497,283.999V232.46h6.407v51.539H843.497z"/>
			<path fill="#4D4D4D" d="M885.715,271.976l6.621,0.809c-1.045,3.82-2.979,6.785-5.802,8.895
				c-2.825,2.109-6.432,3.164-10.822,3.164c-5.529,0-9.913-1.682-13.153-5.045c-3.239-3.363-4.858-8.08-4.858-14.15
				c0-6.281,1.638-11.156,4.912-14.625c3.275-3.469,7.522-5.203,12.744-5.203c5.055,0,9.184,1.699,12.388,5.098
				s4.806,8.18,4.806,14.344c0,0.375-0.013,0.938-0.036,1.688h-28.192c0.236,4.102,1.411,7.242,3.524,9.422
				c2.111,2.18,4.746,3.27,7.902,3.27c2.35,0,4.354-0.609,6.016-1.828S884.741,274.647,885.715,271.976z M864.677,261.745h21.109
				c-0.285-3.141-1.092-5.496-2.421-7.066c-2.041-2.438-4.687-3.656-7.938-3.656c-2.943,0-5.417,0.973-7.422,2.918
				C866,255.886,864.891,258.487,864.677,261.745z"/>
		</g>
	</g>
</g>
<g id="E-Logo_1_">
	<circle id="Orange_Kontur" fill="#FF6600" cx="107.342" cy="151.012" r="93.5"/>
	<path id="e" fill="#FFFFFF" d="M127.899,164.268c-3.913,7.901-11.433,13.254-20.081,13.254c-11.424,0-20.891-9.325-22.661-21.541
		h23.958h21.358h20.947c0.115-1.326,0.185-2.665,0.185-4.021c0-24.838-19.765-44.971-44.142-44.971
		c-24.378,0-44.145,20.133-44.145,44.971c0,24.836,19.767,44.971,44.145,44.971c20.187,0,37.197-13.812,42.454-32.663H127.899z
		 M107.818,126.159c8.821,0,16.474,5.566,20.318,13.728H87.495C91.339,131.726,98.994,126.159,107.818,126.159z"/>
</g>
</svg>
