<?xml version="1.0" encoding="utf-8"?>
<!-- Generator: Adobe Illustrator 16.0.4, SVG Export Plug-In . SVG Version: 6.00 Build 0)  -->
<!DOCTYPE svg PUBLIC "-//W3C//DTD SVG 1.1//EN" "http://www.w3.org/Graphics/SVG/1.1/DTD/svg11.dtd">
<svg version="1.1" id="Ebene_1" xmlns="http://www.w3.org/2000/svg" xmlns:xlink="http://www.w3.org/1999/xlink" x="0px" y="0px"
	 width="127.56px" height="56.693px" viewBox="0 0 127.56 56.693" enable-background="new 0 0 127.56 56.693" xml:space="preserve">
<g>
	<defs>
		<rect id="SVGID_1_" x="5" y="6.71" width="119.139" height="42.983"/>
	</defs>
	<clipPath id="SVGID_2_">
		<use xlink:href="#SVGID_1_"  overflow="visible"/>
	</clipPath>
	<path clip-path="url(#SVGID_2_)" fill="#EC652A" d="M122.367,14.128c-0.023-0.714-0.207-1.254-0.551-1.62
		c-0.34-0.348-0.774-0.522-1.306-0.522c-0.53,0-0.966,0.174-1.305,0.522c-0.333,0.366-0.517,0.906-0.55,1.62H122.367z
		 M118.656,15.63c0,0.734,0.203,1.291,0.609,1.673c0.378,0.387,0.875,0.581,1.491,0.581c0.718,0,1.359-0.297,1.924-0.889
		l1.279,1.133c-0.898,0.989-1.955,1.477-3.169,1.465c-0.464,0-0.916-0.07-1.356-0.21c-0.221-0.076-0.435-0.178-0.644-0.307
		c-0.221-0.111-0.427-0.248-0.619-0.412c-0.373-0.339-0.675-0.812-0.907-1.42c-0.254-0.584-0.381-1.344-0.381-2.279
		c0-0.9,0.11-1.648,0.33-2.244c0.221-0.607,0.503-1.087,0.848-1.437c0.351-0.357,0.743-0.614,1.179-0.772
		c0.429-0.157,0.853-0.236,1.271-0.236c1.006,0.012,1.856,0.354,2.551,1.026c0.706,0.685,1.065,1.627,1.077,2.826v1.502H118.656z
		 M112.685,6.71h1.772v10.44c0,0.415,0.221,0.623,0.664,0.623h0.613v1.71h-0.79c-0.646,0-1.179-0.166-1.598-0.496
		c-0.44-0.337-0.662-0.903-0.662-1.697V6.71z M103.046,10.387h1.772v5.427c0,0.615,0.167,1.095,0.502,1.44
		c0.329,0.346,0.748,0.519,1.259,0.519c0.51,0,0.927-0.173,1.251-0.519c0.328-0.345,0.493-0.825,0.493-1.44v-5.427h1.771v9.096
		h-1.771V18.51h-0.034c-0.584,0.722-1.346,1.083-2.286,1.083c-0.73-0.011-1.391-0.285-1.979-0.822
		c-0.641-0.525-0.967-1.3-0.978-2.327V10.387z M93.407,6.71h1.771v4.643h0.034c0.584-0.718,1.348-1.077,2.295-1.077
		c0.73,0,1.399,0.266,2.005,0.797c0.601,0.537,0.914,1.326,0.943,2.365v6.045h-1.772v-5.421c0-0.638-0.165-1.123-0.492-1.457
		c-0.324-0.339-0.74-0.508-1.251-0.508c-0.512,0-0.931,0.169-1.26,0.508c-0.335,0.334-0.502,0.819-0.502,1.457v5.421h-1.771V6.71z
		 M91.939,18.025c-0.386,0.453-0.839,0.822-1.359,1.107c-0.521,0.296-1.124,0.45-1.809,0.461c-1.04,0-1.953-0.365-2.739-1.095
		c-0.815-0.731-1.233-1.914-1.256-3.55c0.022-1.654,0.441-2.852,1.256-3.594c0.787-0.731,1.7-1.09,2.741-1.078
		c0.685,0.012,1.286,0.157,1.808,0.437c0.52,0.285,0.973,0.667,1.358,1.145l-1.309,1.198c-0.447-0.616-1.044-0.936-1.791-0.959
		c-1.505-0.024-2.269,0.927-2.292,2.851c0.023,1.912,0.787,2.854,2.292,2.825c0.747-0.012,1.344-0.329,1.791-0.951L91.939,18.025z
		 M77.093,16.708c0.721,0.785,1.649,1.177,2.787,1.177c0.51,0,0.927-0.103,1.25-0.308c0.323-0.204,0.484-0.491,0.484-0.859
		c0-0.328-0.097-0.556-0.289-0.685c-0.198-0.135-0.462-0.208-0.79-0.219l-1.563-0.141c-0.741-0.07-1.345-0.327-1.809-0.772
		c-0.477-0.433-0.719-1.038-0.731-1.816c0.013-0.936,0.331-1.638,0.96-2.106c0.611-0.468,1.387-0.702,2.326-0.702
		c0.408,0,0.773,0.026,1.096,0.078c0.322,0.059,0.626,0.14,0.908,0.245c0.543,0.227,1.03,0.533,1.46,0.918l-1.096,1.32
		c-0.34-0.254-0.699-0.464-1.079-0.63c-0.374-0.147-0.804-0.221-1.291-0.221c-0.555,0-0.942,0.102-1.164,0.307
		c-0.231,0.205-0.348,0.469-0.348,0.791c-0.012,0.205,0.076,0.384,0.263,0.536c0.17,0.169,0.47,0.278,0.901,0.325l1.461,0.114
		c0.917,0.07,1.58,0.357,1.988,0.861c0.379,0.492,0.568,1.116,0.568,1.871c-0.012,0.885-0.359,1.567-1.044,2.047
		c-0.679,0.492-1.548,0.744-2.605,0.755c-1.438,0-2.73-0.54-3.879-1.622L77.093,16.708z M67.189,6.71h1.771v4.643h0.034
		c0.584-0.718,1.349-1.077,2.295-1.077c0.729,0,1.399,0.266,2.005,0.797c0.6,0.537,0.915,1.326,0.943,2.365v6.045h-1.772v-5.421
		c0-0.638-0.164-1.123-0.493-1.457c-0.323-0.339-0.739-0.508-1.251-0.508c-0.51,0-0.93,0.169-1.259,0.508
		c-0.335,0.334-0.502,0.819-0.502,1.457v5.421h-1.771V6.71z M65.721,18.025c-0.385,0.453-0.838,0.822-1.359,1.107
		c-0.521,0.296-1.124,0.45-1.809,0.461c-1.04,0-1.953-0.365-2.739-1.095c-0.814-0.731-1.233-1.914-1.255-3.55
		c0.022-1.654,0.441-2.852,1.255-3.594c0.787-0.731,1.7-1.09,2.741-1.078c0.685,0.012,1.287,0.157,1.808,0.437
		c0.52,0.285,0.973,0.667,1.358,1.145l-1.308,1.198c-0.447-0.616-1.044-0.936-1.791-0.959c-1.505-0.024-2.269,0.927-2.292,2.851
		c0.023,1.912,0.787,2.854,2.292,2.825c0.747-0.012,1.344-0.329,1.791-0.951L65.721,18.025z M55.306,14.948
		c0-0.651-0.028-1.127-0.084-1.426c-0.057-0.287-0.173-0.54-0.348-0.757c-0.13-0.205-0.322-0.366-0.576-0.484
		c-0.243-0.123-0.525-0.184-0.847-0.184c-0.3,0-0.576,0.061-0.83,0.184c-0.244,0.118-0.441,0.279-0.594,0.484
		c-0.152,0.217-0.262,0.47-0.33,0.757c-0.068,0.299-0.102,0.769-0.102,1.408c0,0.634,0.034,1.097,0.102,1.391
		c0.068,0.299,0.178,0.563,0.33,0.791c0.153,0.177,0.35,0.332,0.594,0.467c0.254,0.129,0.53,0.194,0.83,0.194
		c0.322,0,0.604-0.065,0.847-0.194c0.254-0.135,0.446-0.29,0.576-0.467c0.175-0.228,0.291-0.492,0.348-0.791
		C55.278,16.027,55.306,15.57,55.306,14.948 M49.823,14.93c0-0.96,0.077-1.698,0.229-2.213c0.158-0.504,0.401-0.928,0.729-1.274
		c0.243-0.302,0.582-0.572,1.017-0.81c0.429-0.227,0.98-0.346,1.652-0.357c0.695,0.012,1.258,0.131,1.687,0.359
		c0.424,0.24,0.751,0.512,0.983,0.815c0.35,0.345,0.599,0.769,0.746,1.271c0.141,0.515,0.212,1.251,0.212,2.209
		c0,0.959-0.071,1.689-0.212,2.192c-0.147,0.502-0.396,0.938-0.746,1.306c-0.113,0.134-0.251,0.266-0.415,0.394
		c-0.147,0.146-0.336,0.272-0.568,0.377c-0.429,0.251-0.991,0.383-1.686,0.394c-0.673-0.011-1.224-0.143-1.653-0.394
		c-0.435-0.228-0.774-0.485-1.017-0.772c-0.328-0.367-0.571-0.803-0.729-1.305C49.9,16.619,49.823,15.889,49.823,14.93 M40.612,6.71
		h1.772v4.643h0.034c0.584-0.718,1.349-1.077,2.295-1.077c0.73,0,1.399,0.266,2.005,0.797c0.6,0.537,0.915,1.326,0.943,2.365v6.045
		h-1.772v-5.421c0-0.638-0.164-1.123-0.493-1.457c-0.324-0.339-0.74-0.508-1.251-0.508c-0.51,0-0.93,0.169-1.259,0.508
		c-0.335,0.334-0.502,0.819-0.502,1.457v5.421h-1.772V6.71z M30.973,6.71h1.772v4.643h0.034c0.584-0.718,1.349-1.077,2.295-1.077
		c0.73,0,1.399,0.266,2.005,0.797c0.6,0.537,0.915,1.326,0.943,2.365v6.045H36.25v-5.421c0-0.638-0.164-1.123-0.493-1.457
		c-0.324-0.339-0.74-0.508-1.251-0.508c-0.51,0-0.93,0.169-1.259,0.508c-0.335,0.334-0.502,0.819-0.502,1.457v5.421h-1.772V6.71z
		 M29.505,18.025c-0.385,0.453-0.838,0.822-1.359,1.107c-0.521,0.296-1.124,0.45-1.809,0.461c-1.04,0-1.953-0.365-2.739-1.095
		c-0.814-0.731-1.233-1.914-1.255-3.55c0.022-1.654,0.441-2.852,1.255-3.594c0.787-0.731,1.7-1.09,2.741-1.078
		c0.685,0.012,1.287,0.157,1.808,0.437c0.52,0.285,0.973,0.667,1.358,1.145l-1.308,1.198c-0.447-0.616-1.044-0.936-1.79-0.959
		c-1.506-0.024-2.27,0.927-2.293,2.851c0.023,1.912,0.787,2.854,2.292,2.825c0.747-0.012,1.344-0.329,1.791-0.951L29.505,18.025z
		 M18.662,15.63h-2.12c-1.03,0.024-1.539,0.391-1.527,1.1c0,0.311,0.132,0.576,0.398,0.793c0.255,0.24,0.676,0.361,1.264,0.361
		c0.741,0.011,1.264-0.08,1.57-0.273c0.277-0.194,0.415-0.634,0.415-1.32V15.63z M18.662,18.687h-0.033
		c-0.164,0.309-0.418,0.535-0.762,0.681c-0.339,0.151-0.808,0.226-1.406,0.226c-0.982-0.011-1.738-0.28-2.269-0.805
		c-0.559-0.514-0.838-1.171-0.838-1.971c0-0.765,0.242-1.399,0.728-1.901c0.485-0.514,1.196-0.776,2.134-0.788h2.446v-0.965
		c0.012-0.808-0.589-1.201-1.804-1.177c-0.44,0-0.787,0.047-1.042,0.141c-0.265,0.112-0.474,0.301-0.626,0.567l-1.39-1.099
		c0.672-0.903,1.664-1.343,2.974-1.319c1.107-0.012,1.991,0.204,2.652,0.648c0.661,0.455,0.997,1.238,1.008,2.348v6.211h-1.772
		V18.687z M5,6.71h7.899v1.821H6.867v3.775h5.149v1.708H6.867v5.469H5V6.71z"/>
	<path clip-path="url(#SVGID_2_)" fill="#EC652A" d="M76.693,29.263c-0.42,0-0.74,0.072-0.961,0.22
		c-0.245,0.159-0.424,0.375-0.536,0.651c-0.108,0.275-0.18,0.574-0.213,0.897c-0.034,0.346-0.052,0.701-0.052,1.064
		c0,0.347,0.018,0.684,0.052,1.012c0.033,0.347,0.104,0.658,0.213,0.933c0.112,0.265,0.291,0.481,0.536,0.652
		c0.221,0.164,0.541,0.246,0.961,0.246c0.419,0,0.751-0.088,0.995-0.264c0.243-0.171,0.41-0.394,0.502-0.67
		c0.113-0.275,0.189-0.584,0.229-0.924c0.011-0.334,0.017-0.663,0.017-0.985c0-0.352-0.006-0.689-0.017-1.012
		c-0.04-0.322-0.116-0.622-0.229-0.897c-0.092-0.276-0.259-0.499-0.502-0.669C77.444,29.348,77.112,29.263,76.693,29.263
		 M78.437,35.705c-0.584,0.68-1.346,1.031-2.285,1.055c-0.533-0.013-0.989-0.126-1.368-0.343c-0.397-0.211-0.729-0.491-0.994-0.843
		c-0.244-0.286-0.405-0.675-0.485-1.166c-0.096-0.468-0.144-1.24-0.144-2.316c0-1.094,0.048-1.871,0.144-2.333
		c0.08-0.469,0.241-0.846,0.485-1.133c0.498-0.761,1.286-1.155,2.362-1.185c0.452,0,0.872,0.096,1.258,0.288
		c0.356,0.203,0.699,0.464,1.027,0.784v-4.638h1.772v12.772h-1.772V35.705z M63.521,27.553h1.772v0.964h0.034
		c0.583-0.717,1.348-1.075,2.294-1.075c0.73,0,1.4,0.266,2.006,0.797c0.6,0.538,0.914,1.326,0.943,2.365v6.045h-1.772v-5.421
		c0-0.637-0.165-1.123-0.493-1.456c-0.324-0.339-0.74-0.509-1.25-0.509c-0.512,0-0.931,0.17-1.26,0.509
		c-0.335,0.333-0.502,0.819-0.502,1.456v5.421h-1.772V27.553z M53.882,27.553h1.772v5.427c0,0.615,0.167,1.096,0.502,1.44
		c0.329,0.346,0.748,0.519,1.259,0.519c0.511,0,0.927-0.173,1.251-0.519c0.328-0.345,0.493-0.825,0.493-1.44v-5.427h1.772v9.096
		h-1.772v-0.973h-0.034c-0.584,0.723-1.346,1.084-2.286,1.084c-0.731-0.013-1.39-0.286-1.98-0.822
		c-0.64-0.525-0.965-1.301-0.977-2.328V27.553z M38.525,27.553h1.776v0.964h0.034c0.602-0.717,1.393-1.075,2.375-1.075
		c0.63,0.012,1.138,0.12,1.524,0.324c0.38,0.228,0.727,0.517,1.043,0.868c0.712-0.807,1.667-1.204,2.865-1.192
		c0.753,0,1.443,0.266,2.068,0.797c0.619,0.538,0.94,1.326,0.964,2.365v6.045h-1.775v-5.421c0-0.637-0.17-1.123-0.508-1.456
		c-0.339-0.339-0.776-0.509-1.311-0.509c-0.534,0-0.974,0.17-1.319,0.509c-0.351,0.333-0.526,0.819-0.526,1.456v5.421h-1.772v-5.421
		c0-0.637-0.169-1.123-0.507-1.456c-0.343-0.339-0.782-0.509-1.316-0.509c-0.533,0-0.969,0.17-1.307,0.509
		c-0.355,0.333-0.533,0.819-0.533,1.456v5.421h-1.775V27.553z M33.178,24.783h1.772v2.77h1.29v1.393h-1.29v5.316
		c-0.012,0.463,0.197,0.688,0.628,0.677h0.662v1.71h-0.924c-0.622,0-1.132-0.199-1.527-0.596c-0.408-0.381-0.611-0.93-0.611-1.647
		v-5.46H32.29v-1.393h0.888V24.783z M25.186,27.553h1.772v0.964h0.037c0.582-0.717,1.347-1.075,2.292-1.075
		c0.708,0.012,1.325,0.244,1.851,0.698l-1.291,1.58c-0.374-0.306-0.762-0.457-1.164-0.457c-0.454,0-0.842,0.151-1.164,0.456
		c-0.363,0.298-0.55,0.78-0.561,1.446v5.483h-1.772V27.553z M21.268,32.113c0-0.651-0.028-1.126-0.085-1.426
		c-0.056-0.287-0.172-0.539-0.347-0.756c-0.13-0.206-0.322-0.367-0.576-0.484c-0.243-0.123-0.526-0.185-0.848-0.185
		c-0.299,0-0.576,0.062-0.83,0.185c-0.243,0.117-0.44,0.278-0.593,0.484c-0.153,0.217-0.263,0.469-0.33,0.757
		c-0.068,0.299-0.102,0.768-0.102,1.407c0,0.634,0.034,1.098,0.102,1.391c0.067,0.299,0.177,0.563,0.33,0.792
		c0.153,0.176,0.35,0.332,0.593,0.466c0.254,0.13,0.531,0.194,0.83,0.194c0.322,0,0.605-0.064,0.848-0.194
		c0.254-0.134,0.446-0.29,0.576-0.466c0.175-0.229,0.291-0.493,0.347-0.792C21.24,33.193,21.268,32.735,21.268,32.113
		 M15.785,32.096c0-0.96,0.076-1.698,0.229-2.213c0.158-0.505,0.401-0.929,0.729-1.274c0.242-0.302,0.581-0.572,1.017-0.81
		c0.429-0.227,0.98-0.346,1.652-0.357c0.695,0.012,1.257,0.132,1.687,0.359c0.424,0.239,0.751,0.512,0.983,0.815
		c0.35,0.345,0.599,0.769,0.746,1.271c0.141,0.514,0.212,1.25,0.212,2.208c0,0.959-0.071,1.688-0.212,2.191
		c-0.147,0.503-0.396,0.938-0.746,1.307c-0.113,0.135-0.251,0.266-0.415,0.395c-0.147,0.146-0.336,0.271-0.568,0.376
		c-0.429,0.252-0.992,0.383-1.687,0.396c-0.672-0.013-1.223-0.144-1.652-0.396c-0.435-0.227-0.774-0.485-1.017-0.771
		c-0.328-0.368-0.571-0.804-0.729-1.307C15.861,33.784,15.785,33.055,15.785,32.096 M6.95,34.827h2.242
		c1.053,0,1.818-0.372,2.293-1.115c0.21-0.274,0.343-0.622,0.399-1.045c0.051-0.415,0.077-1.192,0.077-2.335
		c0-1.111-0.026-1.907-0.077-2.388c-0.067-0.479-0.229-0.869-0.484-1.168c-0.521-0.743-1.257-1.103-2.208-1.08H6.95V34.827z
		 M5.083,23.876h4.323c1.672,0.012,2.927,0.73,3.763,2.154c0.298,0.48,0.487,0.982,0.566,1.507c0.062,0.526,0.093,1.435,0.093,2.726
		c0,1.372-0.048,2.33-0.144,2.873c-0.046,0.274-0.113,0.52-0.204,0.735c-0.096,0.21-0.212,0.43-0.347,0.657
		c-0.361,0.602-0.864,1.098-1.508,1.489c-0.638,0.421-1.421,0.631-2.347,0.631H5.083V23.876z"/>
	<path clip-path="url(#SVGID_2_)" d="M124.139,47.13c0-0.532-0.302-0.864-0.934-1.001l-0.463-0.101
		c-0.372-0.079-0.505-0.245-0.505-0.519c0-0.353,0.26-0.591,0.66-0.591c0.308,0,0.567,0.108,0.877,0.26l0.202-0.417
		c-0.295-0.174-0.701-0.289-1.065-0.289c-0.73,0-1.242,0.454-1.242,1.102c0,0.497,0.308,0.864,0.884,0.987l0.436,0.093
		c0.399,0.087,0.575,0.267,0.575,0.591c0,0.381-0.281,0.619-0.71,0.619c-0.385,0-0.75-0.115-1.107-0.338l-0.211,0.417
		c0.357,0.223,0.842,0.36,1.284,0.36C123.605,48.304,124.139,47.828,124.139,47.13 M120.96,44.609h-0.877
		c0-0.475,0.07-1.037,0.07-1.037l-0.575,0.13c0,0-0.057,0.562-0.057,0.907h-0.456v0.425h0.456v2.463c0,0.36,0.092,0.59,0.337,0.713
		c0.134,0.064,0.273,0.101,0.456,0.101c0.245,0,0.441-0.05,0.617-0.145l-0.076-0.359c-0.1,0.051-0.19,0.071-0.345,0.071
		c-0.344,0-0.449-0.136-0.449-0.531v-2.312h0.729L120.96,44.609z M118.532,44.537c0,0-0.099-0.036-0.189-0.036
		c-0.357,0-0.729,0.231-0.981,0.599c0.021-0.303-0.113-0.583-0.113-0.583l-0.547,0.15c0,0,0.119,0.238,0.119,0.764v2.765h0.548
		v-2.246c0-0.296,0.042-0.404,0.203-0.569s0.372-0.259,0.583-0.259c0.056,0,0.119,0.015,0.153,0.028L118.532,44.537z
		 M114.806,46.193h-1.494l0.759-2.419L114.806,46.193z M116.063,48.195l-1.594-4.938h-0.751l-1.606,4.938h0.582l0.463-1.519h1.797
		l0.456,1.519H116.063z M109.067,47.281c0,0-0.064,0.151-0.211,0.259c-0.225,0.166-0.387,0.23-0.675,0.23
		c-0.321,0-0.54-0.122-0.7-0.417c-0.113-0.209-0.142-0.52-0.142-0.937c0-0.504,0.058-0.764,0.226-1.037
		c0.146-0.244,0.379-0.375,0.652-0.375c0.414,0,0.673,0.123,0.85,0.375V47.281z M109.726,48.195
		c-0.076-0.209-0.104-0.54-0.104-1.159v-4.004l-0.547-0.093v1.505c0,0.259,0.007,0.554,0.007,0.554
		c-0.211-0.288-0.555-0.454-0.948-0.454c-0.252,0-0.449,0.065-0.673,0.225c-0.477,0.338-0.723,0.899-0.723,1.663
		c0,1.145,0.519,1.814,1.424,1.814c0.407,0,0.674-0.123,0.927-0.418c0.007,0.188,0.077,0.367,0.077,0.367H109.726z M105.698,48.195
		v-2.722c0-0.145-0.028-0.288-0.084-0.417c-0.141-0.317-0.478-0.526-0.856-0.526c-0.372,0-0.736,0.18-1.101,0.555
		c0-0.296-0.127-0.562-0.127-0.562l-0.533,0.151c0,0,0.133,0.244,0.133,0.756v2.765h0.534v-2.671
		c0.252-0.274,0.687-0.504,0.968-0.504c0.161,0,0.31,0.057,0.386,0.15c0.099,0.122,0.126,0.217,0.126,0.599v2.426H105.698z
		 M101.264,46.373l-0.021,0.938c-0.162,0.338-0.492,0.561-0.85,0.561c-0.399,0-0.604-0.229-0.604-0.654
		c0-0.548,0.316-0.857,1.2-0.857C101.088,46.359,101.173,46.366,101.264,46.373 M102.071,47.93
		c-0.261-0.145-0.295-0.295-0.281-0.879l0.028-1.182c0.007-0.324,0-0.597-0.077-0.792c-0.147-0.367-0.484-0.561-0.968-0.561
		c-0.507,0-1.005,0.165-1.468,0.481l0.274,0.403c0.224-0.208,0.722-0.424,1.115-0.424c0.218,0,0.357,0.063,0.471,0.193
		c0.098,0.115,0.112,0.245,0.112,0.562v0.252c0,0-0.099-0.008-0.246-0.008c-1.172,0-1.853,0.476-1.853,1.289
		c0,0.482,0.26,1.022,1.122,1.022c0.4,0,0.674-0.137,1.012-0.482c0.062,0.252,0.237,0.446,0.477,0.525L102.071,47.93z M96.668,47.13
		c0-0.532-0.302-0.864-0.934-1.001l-0.463-0.101c-0.372-0.079-0.506-0.245-0.506-0.519c0-0.353,0.261-0.591,0.66-0.591
		c0.309,0,0.568,0.108,0.877,0.26l0.203-0.417c-0.294-0.174-0.701-0.289-1.065-0.289c-0.73,0-1.242,0.454-1.242,1.102
		c0,0.497,0.308,0.864,0.884,0.987l0.435,0.093c0.4,0.087,0.575,0.267,0.575,0.591c0,0.381-0.28,0.619-0.708,0.619
		c-0.386,0-0.751-0.115-1.108-0.338l-0.211,0.417c0.357,0.223,0.842,0.36,1.283,0.36C96.134,48.304,96.668,47.828,96.668,47.13
		 M92.682,46.071h-1.6c0.028-0.742,0.309-1.116,0.807-1.116c0.268,0,0.513,0.122,0.633,0.317
		C92.626,45.445,92.675,45.683,92.682,46.071 M93.264,46.496v-0.079c0-0.856-0.098-1.195-0.399-1.512
		c-0.238-0.252-0.568-0.389-0.947-0.389c-0.421,0-0.765,0.158-1.045,0.497c-0.295,0.359-0.421,0.748-0.421,1.353
		c0,1.188,0.582,1.908,1.55,1.908c0.449,0,0.87-0.158,1.179-0.446l-0.21-0.359c-0.246,0.229-0.52,0.338-0.855,0.338
		c-0.352,0-0.674-0.129-0.871-0.439c-0.119-0.187-0.161-0.446-0.161-0.785v-0.086H93.264z M89.756,47.8l-0.302-0.36
		c-0.203,0.252-0.47,0.389-0.751,0.389c-0.562,0-0.863-0.438-0.863-1.246c0-0.524,0.063-0.921,0.197-1.173
		c0.126-0.245,0.386-0.404,0.659-0.404c0.267,0,0.421,0.08,0.667,0.288l0.302-0.388c-0.253-0.217-0.513-0.389-0.955-0.389
		c-0.372,0-0.673,0.137-0.947,0.417c-0.302,0.31-0.525,0.742-0.525,1.526c0,0.533,0.104,0.93,0.337,1.274
		c0.245,0.36,0.617,0.54,1.115,0.54C89.124,48.274,89.433,48.139,89.756,47.8 M86.177,48.195v-2.722
		c0-0.145-0.027-0.288-0.084-0.417c-0.14-0.317-0.477-0.526-0.855-0.526c-0.372,0-0.737,0.18-1.103,0.555
		c0-0.296-0.126-0.562-0.126-0.562l-0.533,0.151c0,0,0.134,0.244,0.134,0.756v2.765h0.532v-2.671
		c0.253-0.274,0.688-0.504,0.97-0.504c0.161,0,0.308,0.057,0.386,0.15c0.098,0.122,0.126,0.217,0.126,0.599v2.426H86.177z
		 M81.897,46.071h-1.601c0.028-0.742,0.31-1.116,0.807-1.116c0.268,0,0.513,0.122,0.633,0.317
		C81.841,45.445,81.89,45.683,81.897,46.071 M82.479,46.496v-0.079c0-0.856-0.098-1.195-0.399-1.512
		c-0.238-0.252-0.568-0.389-0.947-0.389c-0.421,0-0.765,0.158-1.045,0.497c-0.295,0.359-0.421,0.748-0.421,1.353
		c0,1.188,0.582,1.908,1.55,1.908c0.449,0,0.87-0.158,1.179-0.446l-0.21-0.359c-0.245,0.229-0.52,0.338-0.855,0.338
		c-0.352,0-0.674-0.129-0.871-0.439c-0.119-0.187-0.161-0.446-0.161-0.785v-0.086H82.479z M78.585,48.195V44.53l-0.568,0.094v3.571
		H78.585z M78.739,43.5c0-0.243-0.189-0.438-0.429-0.438c-0.237,0-0.428,0.202-0.428,0.447c0,0.236,0.19,0.432,0.428,0.432
		C78.55,43.94,78.739,43.745,78.739,43.5 M77.083,47.8l-0.301-0.36c-0.204,0.252-0.472,0.389-0.751,0.389
		c-0.562,0-0.863-0.438-0.863-1.246c0-0.524,0.063-0.921,0.196-1.173c0.126-0.245,0.386-0.404,0.66-0.404
		c0.266,0,0.421,0.08,0.666,0.288l0.302-0.388c-0.253-0.217-0.512-0.389-0.954-0.389c-0.372,0-0.674,0.137-0.948,0.417
		c-0.301,0.31-0.525,0.742-0.525,1.526c0,0.533,0.104,0.93,0.337,1.274c0.246,0.36,0.617,0.54,1.115,0.54
		C76.452,48.274,76.761,48.139,77.083,47.8 M73.694,46.799c0-0.31-0.119-0.642-0.316-0.871c-0.196-0.23-0.421-0.36-0.849-0.497
		l-0.555-0.181c-0.567-0.187-0.8-0.409-0.8-0.806c0-0.504,0.358-0.814,0.961-0.814c0.414,0,0.709,0.108,1.172,0.419l0.253-0.426
		c-0.455-0.316-0.933-0.475-1.452-0.475c-0.934,0-1.559,0.576-1.559,1.418c0,0.317,0.106,0.591,0.302,0.807
		c0.19,0.201,0.422,0.303,0.856,0.439l0.484,0.15c0.583,0.181,0.863,0.482,0.863,0.923c0,0.288-0.112,0.524-0.344,0.705
		c-0.204,0.158-0.4,0.216-0.765,0.216c-0.484,0-0.892-0.129-1.291-0.424l-0.253,0.46c0.477,0.303,0.968,0.446,1.544,0.446
		c0.441,0,0.765-0.094,1.081-0.303C73.456,47.706,73.694,47.26,73.694,46.799 M67.098,47.281c0,0-0.062,0.151-0.209,0.259
		c-0.226,0.166-0.387,0.23-0.675,0.23c-0.323,0-0.54-0.122-0.702-0.417c-0.111-0.209-0.14-0.52-0.14-0.937
		c0-0.504,0.056-0.764,0.226-1.037c0.146-0.244,0.377-0.375,0.651-0.375c0.414,0,0.674,0.123,0.849,0.375V47.281z M67.758,48.195
		c-0.076-0.209-0.105-0.54-0.105-1.159v-4.004l-0.547-0.093v1.505c0,0.259,0.006,0.554,0.006,0.554
		c-0.209-0.288-0.553-0.454-0.946-0.454c-0.253,0-0.449,0.065-0.674,0.225c-0.478,0.338-0.722,0.899-0.722,1.663
		c0,1.145,0.519,1.814,1.424,1.814c0.406,0,0.674-0.123,0.926-0.418c0.007,0.188,0.076,0.367,0.076,0.367H67.758z M63.309,46.071
		h-1.6c0.028-0.742,0.309-1.116,0.807-1.116c0.267,0,0.512,0.122,0.632,0.317C63.253,45.445,63.302,45.683,63.309,46.071
		 M63.891,46.496v-0.079c0-0.856-0.098-1.195-0.4-1.512c-0.238-0.252-0.568-0.389-0.947-0.389c-0.421,0-0.765,0.158-1.045,0.497
		c-0.295,0.359-0.421,0.748-0.421,1.353c0,1.188,0.582,1.908,1.55,1.908c0.449,0,0.87-0.158,1.179-0.446l-0.21-0.359
		c-0.246,0.229-0.52,0.338-0.856,0.338c-0.351,0-0.674-0.129-0.87-0.439c-0.12-0.187-0.162-0.446-0.162-0.785v-0.086H63.891z
		 M59.997,48.195V44.53l-0.568,0.094v3.571H59.997z M60.151,43.5c0-0.243-0.189-0.438-0.428-0.438c-0.238,0-0.428,0.202-0.428,0.447
		c0,0.236,0.19,0.432,0.428,0.432C59.962,43.94,60.151,43.745,60.151,43.5 M58.481,48.188l-0.112-0.367c0,0-0.049,0.014-0.07,0.014
		c-0.154,0-0.197-0.078-0.197-0.359v-3.665c0-0.547-0.091-0.851-0.091-0.851l-0.547,0.108c0,0,0.084,0.267,0.084,0.735v3.802
		c0,0.259,0.056,0.41,0.168,0.511c0.106,0.102,0.246,0.151,0.414,0.151C58.278,48.268,58.341,48.253,58.481,48.188 M55.864,46.468
		c0,0.402-0.042,0.677-0.147,0.906c-0.12,0.268-0.414,0.447-0.737,0.447c-0.295,0-0.597-0.166-0.856-0.468v-1.809
		c0.266-0.33,0.582-0.504,0.933-0.504c0.281,0,0.533,0.152,0.646,0.396C55.801,45.653,55.864,46.035,55.864,46.468 M56.446,46.396
		c0-0.642-0.126-1.08-0.386-1.411c-0.224-0.288-0.575-0.447-0.933-0.447c-0.386,0-0.744,0.181-1.031,0.526
		c0-0.396-0.035-0.547-0.035-0.547l-0.562,0.1c0,0,0.077,0.225,0.077,0.771v4.306l0.548-0.108v-1.714
		c0.245,0.259,0.603,0.418,0.961,0.418c0.456,0,0.828-0.237,1.081-0.654C56.362,47.303,56.446,46.972,56.446,46.396 M51.892,46.468
		c0,0.402-0.042,0.677-0.147,0.906c-0.119,0.268-0.414,0.447-0.737,0.447c-0.294,0-0.596-0.166-0.856-0.468v-1.809
		c0.267-0.33,0.583-0.504,0.933-0.504c0.281,0,0.534,0.152,0.646,0.396C51.829,45.653,51.892,46.035,51.892,46.468 M52.475,46.396
		c0-0.642-0.127-1.08-0.386-1.411c-0.225-0.288-0.576-0.447-0.933-0.447c-0.386,0-0.744,0.181-1.032,0.526
		c0-0.396-0.035-0.547-0.035-0.547l-0.561,0.1c0,0,0.077,0.225,0.077,0.771v4.306l0.547-0.108v-1.714
		c0.246,0.259,0.604,0.418,0.961,0.418c0.457,0,0.828-0.237,1.081-0.654C52.391,47.303,52.475,46.972,52.475,46.396 M47.591,46.193
		h-1.495l0.758-2.419L47.591,46.193z M48.847,48.195l-1.593-4.938h-0.751l-1.607,4.938h0.583l0.463-1.519h1.796l0.456,1.519H48.847z
		 M43.353,43.191c-0.204-0.137-0.47-0.209-0.772-0.209c-0.26,0-0.449,0.058-0.618,0.187c-0.147,0.115-0.386,0.347-0.386,0.88v0.561
		h-0.336v0.425h0.336v3.161h0.576v-3.161h0.8l0.168-0.425h-0.968v-0.554c0-0.411,0.168-0.635,0.477-0.635
		c0.189,0,0.386,0.088,0.519,0.166L43.353,43.191z M39.767,46.503c0,0.354-0.028,0.556-0.105,0.778
		c-0.12,0.345-0.393,0.54-0.758,0.54c-0.302,0-0.582-0.144-0.709-0.36c-0.133-0.223-0.217-0.67-0.217-1.174
		c0-0.425,0.056-0.713,0.168-0.936c0.119-0.238,0.407-0.39,0.716-0.39c0.288,0,0.596,0.145,0.744,0.462
		C39.718,45.661,39.767,45.999,39.767,46.503 M40.392,46.46c0-0.583-0.106-1.008-0.323-1.332c-0.239-0.353-0.618-0.627-1.2-0.627
		c-0.919,0-1.488,0.714-1.488,1.881c0,1.181,0.548,1.907,1.509,1.907C39.767,48.289,40.392,47.655,40.392,46.46 M35.059,44.609
		h-0.625l-0.688,2.355c-0.084,0.295-0.217,0.756-0.217,0.756h-0.014c0,0-0.105-0.555-0.211-0.894l-0.715-2.326l-0.541,0.188
		l0.751,2.247c0.119,0.359,0.309,1.059,0.351,1.289l0.225-0.036c-0.19,0.727-0.358,0.958-0.807,1.102l0.161,0.381
		c0.61-0.15,0.898-0.626,1.13-1.346L35.059,44.609z M31.578,44.609h-0.877c0-0.475,0.07-1.037,0.07-1.037l-0.575,0.13
		c0,0-0.056,0.562-0.056,0.907h-0.456v0.425h0.456v2.463c0,0.36,0.091,0.59,0.337,0.713c0.133,0.064,0.273,0.101,0.456,0.101
		c0.245,0,0.442-0.05,0.617-0.145l-0.077-0.359c-0.098,0.051-0.19,0.071-0.344,0.071c-0.344,0-0.449-0.136-0.449-0.531v-2.312h0.73
		L31.578,44.609z M28.757,48.195V44.53l-0.568,0.094v3.571H28.757z M28.912,43.5c0-0.243-0.19-0.438-0.428-0.438
		c-0.239,0-0.428,0.202-0.428,0.447c0,0.236,0.189,0.432,0.428,0.432C28.722,43.94,28.912,43.745,28.912,43.5 M27.151,47.13
		c0-0.532-0.302-0.864-0.934-1.001l-0.463-0.101c-0.372-0.079-0.505-0.245-0.505-0.519c0-0.353,0.26-0.591,0.659-0.591
		c0.309,0,0.569,0.108,0.878,0.26l0.203-0.417c-0.295-0.174-0.702-0.289-1.066-0.289c-0.73,0-1.243,0.454-1.243,1.102
		c0,0.497,0.309,0.864,0.885,0.987L26,46.654c0.4,0.087,0.575,0.267,0.575,0.591c0,0.381-0.281,0.619-0.709,0.619
		c-0.386,0-0.75-0.115-1.108-0.338l-0.211,0.417c0.358,0.223,0.842,0.36,1.284,0.36C26.617,48.304,27.151,47.828,27.151,47.13
		 M24.105,44.537c0,0-0.098-0.036-0.189-0.036c-0.358,0-0.73,0.231-0.983,0.599c0.021-0.303-0.112-0.583-0.112-0.583l-0.547,0.15
		c0,0,0.119,0.238,0.119,0.764v2.765h0.547v-2.246c0-0.296,0.042-0.404,0.204-0.569c0.161-0.165,0.372-0.259,0.582-0.259
		c0.056,0,0.12,0.015,0.155,0.028L24.105,44.537z M20.681,46.071h-1.6c0.028-0.742,0.309-1.116,0.807-1.116
		c0.267,0,0.512,0.122,0.632,0.317C20.625,45.445,20.674,45.683,20.681,46.071 M21.263,46.496v-0.079c0-0.856-0.098-1.195-0.4-1.512
		c-0.238-0.252-0.568-0.389-0.947-0.389c-0.421,0-0.765,0.158-1.046,0.497c-0.294,0.359-0.421,0.748-0.421,1.353
		c0,1.188,0.583,1.908,1.551,1.908c0.449,0,0.87-0.158,1.179-0.446l-0.21-0.359c-0.246,0.229-0.52,0.338-0.856,0.338
		c-0.351,0-0.674-0.129-0.871-0.439c-0.119-0.187-0.161-0.446-0.161-0.785v-0.086H21.263z M17.924,44.609h-0.582l-0.8,2.384
		c-0.112,0.324-0.168,0.605-0.168,0.605H16.36c0,0-0.07-0.317-0.169-0.612l-0.814-2.47l-0.561,0.122l1.256,3.593h0.54L17.924,44.609
		z M14.044,48.195V44.53l-0.568,0.094v3.571H14.044z M14.198,43.5c0-0.243-0.189-0.438-0.428-0.438
		c-0.238,0-0.428,0.202-0.428,0.447c0,0.236,0.19,0.432,0.428,0.432C14.009,43.94,14.198,43.745,14.198,43.5 M12.192,48.195v-2.722
		c0-0.145-0.028-0.288-0.085-0.417c-0.14-0.317-0.477-0.526-0.856-0.526c-0.372,0-0.736,0.18-1.101,0.555
		c0-0.296-0.127-0.562-0.127-0.562L9.49,44.675c0,0,0.133,0.244,0.133,0.756v2.765h0.534v-2.671
		c0.252-0.274,0.687-0.504,0.968-0.504c0.161,0,0.309,0.057,0.386,0.15c0.098,0.122,0.126,0.217,0.126,0.599v2.426H12.192z
		 M8.276,46.77v-3.513H7.708v3.44c0,0.332-0.021,0.548-0.183,0.771c-0.147,0.201-0.449,0.31-0.849,0.31
		c-0.589,0-0.849-0.267-0.94-0.483c-0.063-0.15-0.084-0.468-0.084-0.713v-3.325H5.083v3.542c0,0.216,0.014,0.532,0.141,0.771
		c0.259,0.489,0.68,0.713,1.424,0.713c0.583,0,0.969-0.123,1.263-0.382C8.199,47.648,8.276,47.367,8.276,46.77"/>
</g>
</svg>
