<?xml version="1.0" encoding="utf-8"?>
<!-- Generator: Adobe Illustrator 16.0.4, SVG Export Plug-In . SVG Version: 6.00 Build 0)  -->
<!DOCTYPE svg PUBLIC "-//W3C//DTD SVG 1.1//EN" "http://www.w3.org/Graphics/SVG/1.1/DTD/svg11.dtd">
<svg version="1.1" id="Ebene_1" xmlns="http://www.w3.org/2000/svg" xmlns:xlink="http://www.w3.org/1999/xlink" x="0px" y="0px"
	 width="44px" height="44px" viewBox="0 0 44 44" enable-background="new 0 0 44 44" xml:space="preserve">
<radialGradient id="SVGID_1_" cx="1463.6748" cy="-2080.9033" r="205.4668" gradientTransform="matrix(0.1584 0 0 -0.1584 -231.7234 -329.3573)" gradientUnits="userSpaceOnUse">
	<stop  offset="0" style="stop-color:#E5B76B"/>
	<stop  offset="0.9904" style="stop-color:#FF6600"/>
</radialGradient>
<polygon fill="url(#SVGID_1_)" points="0,0 44,0 44,44 0,44 "/>
<g>
	<polygon fill="#FFFFFF" points="6.14,37.084 8.152,37.084 8.152,27.935 6.14,27.935 	"/>
	<polygon fill="#FFFFFF" points="9.92,37.084 16.392,37.084 16.392,35.393 11.932,35.393 11.932,27.935 9.92,27.935 	"/>
	<polygon fill="#FFFFFF" points="18.005,37.084 20.017,37.084 20.017,27.935 18.005,27.935 	"/>
	<path fill="#FFFFFF" d="M21.135,37.084h2.038l0.718-2.037h3.422l0.691,2.037h2.09l-3.422-9.149h-2.063L21.135,37.084L21.135,37.084
		z M25.607,30.189h0.025l1.154,3.357h-2.371L25.607,30.189L25.607,30.189z"/>
	<path fill="#FFFFFF" d="M31.07,34.047c-0.025,2.256,1.871,3.256,3.896,3.256c2.486,0,3.806-1.256,3.806-2.936
		c0-2.076-2.05-2.498-2.717-2.665c-2.294-0.589-2.729-0.679-2.729-1.384c0-0.77,0.743-1.038,1.384-1.038
		c0.961,0,1.743,0.282,1.808,1.384h1.947c0-2.115-1.756-2.947-3.665-2.947c-1.653,0-3.422,0.896-3.422,2.768
		c0,1.718,1.371,2.243,2.729,2.602c1.346,0.359,2.717,0.525,2.717,1.513c0,0.936-1.076,1.141-1.781,1.141
		c-1.076,0-2.025-0.475-2.025-1.692H31.07L31.07,34.047z"/>
</g>
</svg>
